G04 #@! TF.GenerationSoftware,KiCad,Pcbnew,(5.1.4)-1*
G04 #@! TF.CreationDate,2021-04-23T00:03:44+10:00*
G04 #@! TF.ProjectId,wheel-hub-io-v1,77686565-6c2d-4687-9562-2d696f2d7631,rev?*
G04 #@! TF.SameCoordinates,Original*
G04 #@! TF.FileFunction,Soldermask,Top*
G04 #@! TF.FilePolarity,Negative*
%FSLAX46Y46*%
G04 Gerber Fmt 4.6, Leading zero omitted, Abs format (unit mm)*
G04 Created by KiCad (PCBNEW (5.1.4)-1) date 2021-04-23 00:03:44*
%MOMM*%
%LPD*%
G04 APERTURE LIST*
%ADD10C,0.100000*%
G04 APERTURE END LIST*
D10*
G36*
X77598254Y-115027818D02*
G01*
X77971511Y-115182426D01*
X77971513Y-115182427D01*
X78219255Y-115347963D01*
X78307436Y-115406884D01*
X78593116Y-115692564D01*
X78817574Y-116028489D01*
X78972182Y-116401746D01*
X79051000Y-116797993D01*
X79051000Y-117202007D01*
X78972182Y-117598254D01*
X78817574Y-117971511D01*
X78817573Y-117971513D01*
X78593116Y-118307436D01*
X78307436Y-118593116D01*
X77971513Y-118817573D01*
X77971512Y-118817574D01*
X77971511Y-118817574D01*
X77598254Y-118972182D01*
X77202007Y-119051000D01*
X76797993Y-119051000D01*
X76401746Y-118972182D01*
X76028489Y-118817574D01*
X76028488Y-118817574D01*
X76028487Y-118817573D01*
X75692564Y-118593116D01*
X75406884Y-118307436D01*
X75182427Y-117971513D01*
X75182426Y-117971511D01*
X75027818Y-117598254D01*
X74949000Y-117202007D01*
X74949000Y-116797993D01*
X75027818Y-116401746D01*
X75182426Y-116028489D01*
X75406884Y-115692564D01*
X75692564Y-115406884D01*
X75780745Y-115347963D01*
X76028487Y-115182427D01*
X76028489Y-115182426D01*
X76401746Y-115027818D01*
X76797993Y-114949000D01*
X77202007Y-114949000D01*
X77598254Y-115027818D01*
X77598254Y-115027818D01*
G37*
G36*
X63598254Y-115027818D02*
G01*
X63971511Y-115182426D01*
X63971513Y-115182427D01*
X64219255Y-115347963D01*
X64307436Y-115406884D01*
X64593116Y-115692564D01*
X64817574Y-116028489D01*
X64972182Y-116401746D01*
X65051000Y-116797993D01*
X65051000Y-117202007D01*
X64972182Y-117598254D01*
X64817574Y-117971511D01*
X64817573Y-117971513D01*
X64593116Y-118307436D01*
X64307436Y-118593116D01*
X63971513Y-118817573D01*
X63971512Y-118817574D01*
X63971511Y-118817574D01*
X63598254Y-118972182D01*
X63202007Y-119051000D01*
X62797993Y-119051000D01*
X62401746Y-118972182D01*
X62028489Y-118817574D01*
X62028488Y-118817574D01*
X62028487Y-118817573D01*
X61692564Y-118593116D01*
X61406884Y-118307436D01*
X61182427Y-117971513D01*
X61182426Y-117971511D01*
X61027818Y-117598254D01*
X60949000Y-117202007D01*
X60949000Y-116797993D01*
X61027818Y-116401746D01*
X61182426Y-116028489D01*
X61406884Y-115692564D01*
X61692564Y-115406884D01*
X61780745Y-115347963D01*
X62028487Y-115182427D01*
X62028489Y-115182426D01*
X62401746Y-115027818D01*
X62797993Y-114949000D01*
X63202007Y-114949000D01*
X63598254Y-115027818D01*
X63598254Y-115027818D01*
G37*
G36*
X86901000Y-117901000D02*
G01*
X85099000Y-117901000D01*
X85099000Y-116099000D01*
X86901000Y-116099000D01*
X86901000Y-117901000D01*
X86901000Y-117901000D01*
G37*
G36*
X88650442Y-116105518D02*
G01*
X88716627Y-116112037D01*
X88886466Y-116163557D01*
X89042991Y-116247222D01*
X89078729Y-116276552D01*
X89180186Y-116359814D01*
X89263448Y-116461271D01*
X89292778Y-116497009D01*
X89376443Y-116653534D01*
X89427963Y-116823373D01*
X89445359Y-117000000D01*
X89427963Y-117176627D01*
X89376443Y-117346466D01*
X89292778Y-117502991D01*
X89263448Y-117538729D01*
X89180186Y-117640186D01*
X89078729Y-117723448D01*
X89042991Y-117752778D01*
X88886466Y-117836443D01*
X88716627Y-117887963D01*
X88650442Y-117894482D01*
X88584260Y-117901000D01*
X88495740Y-117901000D01*
X88429558Y-117894482D01*
X88363373Y-117887963D01*
X88193534Y-117836443D01*
X88037009Y-117752778D01*
X88001271Y-117723448D01*
X87899814Y-117640186D01*
X87816552Y-117538729D01*
X87787222Y-117502991D01*
X87703557Y-117346466D01*
X87652037Y-117176627D01*
X87634641Y-117000000D01*
X87652037Y-116823373D01*
X87703557Y-116653534D01*
X87787222Y-116497009D01*
X87816552Y-116461271D01*
X87899814Y-116359814D01*
X88001271Y-116276552D01*
X88037009Y-116247222D01*
X88193534Y-116163557D01*
X88363373Y-116112037D01*
X88429558Y-116105518D01*
X88495740Y-116099000D01*
X88584260Y-116099000D01*
X88650442Y-116105518D01*
X88650442Y-116105518D01*
G37*
G36*
X86110443Y-113565519D02*
G01*
X86176627Y-113572037D01*
X86346466Y-113623557D01*
X86502991Y-113707222D01*
X86538729Y-113736552D01*
X86640186Y-113819814D01*
X86723448Y-113921271D01*
X86752778Y-113957009D01*
X86836443Y-114113534D01*
X86887963Y-114283373D01*
X86905359Y-114460000D01*
X86887963Y-114636627D01*
X86836443Y-114806466D01*
X86752778Y-114962991D01*
X86723448Y-114998729D01*
X86640186Y-115100186D01*
X86539975Y-115182426D01*
X86502991Y-115212778D01*
X86346466Y-115296443D01*
X86176627Y-115347963D01*
X86110442Y-115354482D01*
X86044260Y-115361000D01*
X85955740Y-115361000D01*
X85889558Y-115354482D01*
X85823373Y-115347963D01*
X85653534Y-115296443D01*
X85497009Y-115212778D01*
X85460025Y-115182426D01*
X85359814Y-115100186D01*
X85276552Y-114998729D01*
X85247222Y-114962991D01*
X85163557Y-114806466D01*
X85112037Y-114636627D01*
X85094641Y-114460000D01*
X85112037Y-114283373D01*
X85163557Y-114113534D01*
X85247222Y-113957009D01*
X85276552Y-113921271D01*
X85359814Y-113819814D01*
X85461271Y-113736552D01*
X85497009Y-113707222D01*
X85653534Y-113623557D01*
X85823373Y-113572037D01*
X85889557Y-113565519D01*
X85955740Y-113559000D01*
X86044260Y-113559000D01*
X86110443Y-113565519D01*
X86110443Y-113565519D01*
G37*
G36*
X88650443Y-113565519D02*
G01*
X88716627Y-113572037D01*
X88886466Y-113623557D01*
X89042991Y-113707222D01*
X89078729Y-113736552D01*
X89180186Y-113819814D01*
X89263448Y-113921271D01*
X89292778Y-113957009D01*
X89376443Y-114113534D01*
X89427963Y-114283373D01*
X89445359Y-114460000D01*
X89427963Y-114636627D01*
X89376443Y-114806466D01*
X89292778Y-114962991D01*
X89263448Y-114998729D01*
X89180186Y-115100186D01*
X89079975Y-115182426D01*
X89042991Y-115212778D01*
X88886466Y-115296443D01*
X88716627Y-115347963D01*
X88650442Y-115354482D01*
X88584260Y-115361000D01*
X88495740Y-115361000D01*
X88429558Y-115354482D01*
X88363373Y-115347963D01*
X88193534Y-115296443D01*
X88037009Y-115212778D01*
X88000025Y-115182426D01*
X87899814Y-115100186D01*
X87816552Y-114998729D01*
X87787222Y-114962991D01*
X87703557Y-114806466D01*
X87652037Y-114636627D01*
X87634641Y-114460000D01*
X87652037Y-114283373D01*
X87703557Y-114113534D01*
X87787222Y-113957009D01*
X87816552Y-113921271D01*
X87899814Y-113819814D01*
X88001271Y-113736552D01*
X88037009Y-113707222D01*
X88193534Y-113623557D01*
X88363373Y-113572037D01*
X88429557Y-113565519D01*
X88495740Y-113559000D01*
X88584260Y-113559000D01*
X88650443Y-113565519D01*
X88650443Y-113565519D01*
G37*
G36*
X51570442Y-107605518D02*
G01*
X51636627Y-107612037D01*
X51806466Y-107663557D01*
X51962991Y-107747222D01*
X51998729Y-107776552D01*
X52100186Y-107859814D01*
X52183448Y-107961271D01*
X52212778Y-107997009D01*
X52296443Y-108153534D01*
X52347963Y-108323373D01*
X52365359Y-108500000D01*
X52347963Y-108676627D01*
X52296443Y-108846466D01*
X52212778Y-109002991D01*
X52183448Y-109038729D01*
X52100186Y-109140186D01*
X51998729Y-109223448D01*
X51962991Y-109252778D01*
X51806466Y-109336443D01*
X51636627Y-109387963D01*
X51570442Y-109394482D01*
X51504260Y-109401000D01*
X51415740Y-109401000D01*
X51349558Y-109394482D01*
X51283373Y-109387963D01*
X51113534Y-109336443D01*
X50957009Y-109252778D01*
X50921271Y-109223448D01*
X50819814Y-109140186D01*
X50736552Y-109038729D01*
X50707222Y-109002991D01*
X50623557Y-108846466D01*
X50572037Y-108676627D01*
X50554641Y-108500000D01*
X50572037Y-108323373D01*
X50623557Y-108153534D01*
X50707222Y-107997009D01*
X50736552Y-107961271D01*
X50819814Y-107859814D01*
X50921271Y-107776552D01*
X50957009Y-107747222D01*
X51113534Y-107663557D01*
X51283373Y-107612037D01*
X51349558Y-107605518D01*
X51415740Y-107599000D01*
X51504260Y-107599000D01*
X51570442Y-107605518D01*
X51570442Y-107605518D01*
G37*
G36*
X86070442Y-107605518D02*
G01*
X86136627Y-107612037D01*
X86306466Y-107663557D01*
X86462991Y-107747222D01*
X86498729Y-107776552D01*
X86600186Y-107859814D01*
X86683448Y-107961271D01*
X86712778Y-107997009D01*
X86796443Y-108153534D01*
X86847963Y-108323373D01*
X86865359Y-108500000D01*
X86847963Y-108676627D01*
X86796443Y-108846466D01*
X86712778Y-109002991D01*
X86683448Y-109038729D01*
X86600186Y-109140186D01*
X86498729Y-109223448D01*
X86462991Y-109252778D01*
X86306466Y-109336443D01*
X86136627Y-109387963D01*
X86070442Y-109394482D01*
X86004260Y-109401000D01*
X85915740Y-109401000D01*
X85849558Y-109394482D01*
X85783373Y-109387963D01*
X85613534Y-109336443D01*
X85457009Y-109252778D01*
X85421271Y-109223448D01*
X85319814Y-109140186D01*
X85236552Y-109038729D01*
X85207222Y-109002991D01*
X85123557Y-108846466D01*
X85072037Y-108676627D01*
X85054641Y-108500000D01*
X85072037Y-108323373D01*
X85123557Y-108153534D01*
X85207222Y-107997009D01*
X85236552Y-107961271D01*
X85319814Y-107859814D01*
X85421271Y-107776552D01*
X85457009Y-107747222D01*
X85613534Y-107663557D01*
X85783373Y-107612037D01*
X85849558Y-107605518D01*
X85915740Y-107599000D01*
X86004260Y-107599000D01*
X86070442Y-107605518D01*
X86070442Y-107605518D01*
G37*
G36*
X89401000Y-109401000D02*
G01*
X87599000Y-109401000D01*
X87599000Y-107599000D01*
X89401000Y-107599000D01*
X89401000Y-109401000D01*
X89401000Y-109401000D01*
G37*
G36*
X54901000Y-109401000D02*
G01*
X53099000Y-109401000D01*
X53099000Y-107599000D01*
X54901000Y-107599000D01*
X54901000Y-109401000D01*
X54901000Y-109401000D01*
G37*
G36*
X88610443Y-105065519D02*
G01*
X88676627Y-105072037D01*
X88846466Y-105123557D01*
X89002991Y-105207222D01*
X89038729Y-105236552D01*
X89140186Y-105319814D01*
X89223448Y-105421271D01*
X89252778Y-105457009D01*
X89336443Y-105613534D01*
X89387963Y-105783373D01*
X89405359Y-105960000D01*
X89387963Y-106136627D01*
X89336443Y-106306466D01*
X89252778Y-106462991D01*
X89223448Y-106498729D01*
X89140186Y-106600186D01*
X89038729Y-106683448D01*
X89002991Y-106712778D01*
X88846466Y-106796443D01*
X88676627Y-106847963D01*
X88610442Y-106854482D01*
X88544260Y-106861000D01*
X88455740Y-106861000D01*
X88389558Y-106854482D01*
X88323373Y-106847963D01*
X88153534Y-106796443D01*
X87997009Y-106712778D01*
X87961271Y-106683448D01*
X87859814Y-106600186D01*
X87776552Y-106498729D01*
X87747222Y-106462991D01*
X87663557Y-106306466D01*
X87612037Y-106136627D01*
X87594641Y-105960000D01*
X87612037Y-105783373D01*
X87663557Y-105613534D01*
X87747222Y-105457009D01*
X87776552Y-105421271D01*
X87859814Y-105319814D01*
X87961271Y-105236552D01*
X87997009Y-105207222D01*
X88153534Y-105123557D01*
X88323373Y-105072037D01*
X88389557Y-105065519D01*
X88455740Y-105059000D01*
X88544260Y-105059000D01*
X88610443Y-105065519D01*
X88610443Y-105065519D01*
G37*
G36*
X86070443Y-105065519D02*
G01*
X86136627Y-105072037D01*
X86306466Y-105123557D01*
X86462991Y-105207222D01*
X86498729Y-105236552D01*
X86600186Y-105319814D01*
X86683448Y-105421271D01*
X86712778Y-105457009D01*
X86796443Y-105613534D01*
X86847963Y-105783373D01*
X86865359Y-105960000D01*
X86847963Y-106136627D01*
X86796443Y-106306466D01*
X86712778Y-106462991D01*
X86683448Y-106498729D01*
X86600186Y-106600186D01*
X86498729Y-106683448D01*
X86462991Y-106712778D01*
X86306466Y-106796443D01*
X86136627Y-106847963D01*
X86070442Y-106854482D01*
X86004260Y-106861000D01*
X85915740Y-106861000D01*
X85849558Y-106854482D01*
X85783373Y-106847963D01*
X85613534Y-106796443D01*
X85457009Y-106712778D01*
X85421271Y-106683448D01*
X85319814Y-106600186D01*
X85236552Y-106498729D01*
X85207222Y-106462991D01*
X85123557Y-106306466D01*
X85072037Y-106136627D01*
X85054641Y-105960000D01*
X85072037Y-105783373D01*
X85123557Y-105613534D01*
X85207222Y-105457009D01*
X85236552Y-105421271D01*
X85319814Y-105319814D01*
X85421271Y-105236552D01*
X85457009Y-105207222D01*
X85613534Y-105123557D01*
X85783373Y-105072037D01*
X85849557Y-105065519D01*
X85915740Y-105059000D01*
X86004260Y-105059000D01*
X86070443Y-105065519D01*
X86070443Y-105065519D01*
G37*
G36*
X51570443Y-105065519D02*
G01*
X51636627Y-105072037D01*
X51806466Y-105123557D01*
X51962991Y-105207222D01*
X51998729Y-105236552D01*
X52100186Y-105319814D01*
X52183448Y-105421271D01*
X52212778Y-105457009D01*
X52296443Y-105613534D01*
X52347963Y-105783373D01*
X52365359Y-105960000D01*
X52347963Y-106136627D01*
X52296443Y-106306466D01*
X52212778Y-106462991D01*
X52183448Y-106498729D01*
X52100186Y-106600186D01*
X51998729Y-106683448D01*
X51962991Y-106712778D01*
X51806466Y-106796443D01*
X51636627Y-106847963D01*
X51570442Y-106854482D01*
X51504260Y-106861000D01*
X51415740Y-106861000D01*
X51349558Y-106854482D01*
X51283373Y-106847963D01*
X51113534Y-106796443D01*
X50957009Y-106712778D01*
X50921271Y-106683448D01*
X50819814Y-106600186D01*
X50736552Y-106498729D01*
X50707222Y-106462991D01*
X50623557Y-106306466D01*
X50572037Y-106136627D01*
X50554641Y-105960000D01*
X50572037Y-105783373D01*
X50623557Y-105613534D01*
X50707222Y-105457009D01*
X50736552Y-105421271D01*
X50819814Y-105319814D01*
X50921271Y-105236552D01*
X50957009Y-105207222D01*
X51113534Y-105123557D01*
X51283373Y-105072037D01*
X51349557Y-105065519D01*
X51415740Y-105059000D01*
X51504260Y-105059000D01*
X51570443Y-105065519D01*
X51570443Y-105065519D01*
G37*
G36*
X54110443Y-105065519D02*
G01*
X54176627Y-105072037D01*
X54346466Y-105123557D01*
X54502991Y-105207222D01*
X54538729Y-105236552D01*
X54640186Y-105319814D01*
X54723448Y-105421271D01*
X54752778Y-105457009D01*
X54836443Y-105613534D01*
X54887963Y-105783373D01*
X54905359Y-105960000D01*
X54887963Y-106136627D01*
X54836443Y-106306466D01*
X54752778Y-106462991D01*
X54723448Y-106498729D01*
X54640186Y-106600186D01*
X54538729Y-106683448D01*
X54502991Y-106712778D01*
X54346466Y-106796443D01*
X54176627Y-106847963D01*
X54110442Y-106854482D01*
X54044260Y-106861000D01*
X53955740Y-106861000D01*
X53889558Y-106854482D01*
X53823373Y-106847963D01*
X53653534Y-106796443D01*
X53497009Y-106712778D01*
X53461271Y-106683448D01*
X53359814Y-106600186D01*
X53276552Y-106498729D01*
X53247222Y-106462991D01*
X53163557Y-106306466D01*
X53112037Y-106136627D01*
X53094641Y-105960000D01*
X53112037Y-105783373D01*
X53163557Y-105613534D01*
X53247222Y-105457009D01*
X53276552Y-105421271D01*
X53359814Y-105319814D01*
X53461271Y-105236552D01*
X53497009Y-105207222D01*
X53653534Y-105123557D01*
X53823373Y-105072037D01*
X53889557Y-105065519D01*
X53955740Y-105059000D01*
X54044260Y-105059000D01*
X54110443Y-105065519D01*
X54110443Y-105065519D01*
G37*
G36*
X54110442Y-102525518D02*
G01*
X54176627Y-102532037D01*
X54346466Y-102583557D01*
X54502991Y-102667222D01*
X54538729Y-102696552D01*
X54640186Y-102779814D01*
X54723448Y-102881271D01*
X54752778Y-102917009D01*
X54836443Y-103073534D01*
X54887963Y-103243373D01*
X54905359Y-103420000D01*
X54887963Y-103596627D01*
X54836443Y-103766466D01*
X54752778Y-103922991D01*
X54723448Y-103958729D01*
X54640186Y-104060186D01*
X54538729Y-104143448D01*
X54502991Y-104172778D01*
X54346466Y-104256443D01*
X54176627Y-104307963D01*
X54110443Y-104314481D01*
X54044260Y-104321000D01*
X53955740Y-104321000D01*
X53889558Y-104314482D01*
X53823373Y-104307963D01*
X53653534Y-104256443D01*
X53497009Y-104172778D01*
X53461271Y-104143448D01*
X53359814Y-104060186D01*
X53276552Y-103958729D01*
X53247222Y-103922991D01*
X53163557Y-103766466D01*
X53112037Y-103596627D01*
X53094641Y-103420000D01*
X53112037Y-103243373D01*
X53163557Y-103073534D01*
X53247222Y-102917009D01*
X53276552Y-102881271D01*
X53359814Y-102779814D01*
X53461271Y-102696552D01*
X53497009Y-102667222D01*
X53653534Y-102583557D01*
X53823373Y-102532037D01*
X53889558Y-102525518D01*
X53955740Y-102519000D01*
X54044260Y-102519000D01*
X54110442Y-102525518D01*
X54110442Y-102525518D01*
G37*
G36*
X51570442Y-102525518D02*
G01*
X51636627Y-102532037D01*
X51806466Y-102583557D01*
X51962991Y-102667222D01*
X51998729Y-102696552D01*
X52100186Y-102779814D01*
X52183448Y-102881271D01*
X52212778Y-102917009D01*
X52296443Y-103073534D01*
X52347963Y-103243373D01*
X52365359Y-103420000D01*
X52347963Y-103596627D01*
X52296443Y-103766466D01*
X52212778Y-103922991D01*
X52183448Y-103958729D01*
X52100186Y-104060186D01*
X51998729Y-104143448D01*
X51962991Y-104172778D01*
X51806466Y-104256443D01*
X51636627Y-104307963D01*
X51570443Y-104314481D01*
X51504260Y-104321000D01*
X51415740Y-104321000D01*
X51349558Y-104314482D01*
X51283373Y-104307963D01*
X51113534Y-104256443D01*
X50957009Y-104172778D01*
X50921271Y-104143448D01*
X50819814Y-104060186D01*
X50736552Y-103958729D01*
X50707222Y-103922991D01*
X50623557Y-103766466D01*
X50572037Y-103596627D01*
X50554641Y-103420000D01*
X50572037Y-103243373D01*
X50623557Y-103073534D01*
X50707222Y-102917009D01*
X50736552Y-102881271D01*
X50819814Y-102779814D01*
X50921271Y-102696552D01*
X50957009Y-102667222D01*
X51113534Y-102583557D01*
X51283373Y-102532037D01*
X51349558Y-102525518D01*
X51415740Y-102519000D01*
X51504260Y-102519000D01*
X51570442Y-102525518D01*
X51570442Y-102525518D01*
G37*
G36*
X88610442Y-102525518D02*
G01*
X88676627Y-102532037D01*
X88846466Y-102583557D01*
X89002991Y-102667222D01*
X89038729Y-102696552D01*
X89140186Y-102779814D01*
X89223448Y-102881271D01*
X89252778Y-102917009D01*
X89336443Y-103073534D01*
X89387963Y-103243373D01*
X89405359Y-103420000D01*
X89387963Y-103596627D01*
X89336443Y-103766466D01*
X89252778Y-103922991D01*
X89223448Y-103958729D01*
X89140186Y-104060186D01*
X89038729Y-104143448D01*
X89002991Y-104172778D01*
X88846466Y-104256443D01*
X88676627Y-104307963D01*
X88610443Y-104314481D01*
X88544260Y-104321000D01*
X88455740Y-104321000D01*
X88389558Y-104314482D01*
X88323373Y-104307963D01*
X88153534Y-104256443D01*
X87997009Y-104172778D01*
X87961271Y-104143448D01*
X87859814Y-104060186D01*
X87776552Y-103958729D01*
X87747222Y-103922991D01*
X87663557Y-103766466D01*
X87612037Y-103596627D01*
X87594641Y-103420000D01*
X87612037Y-103243373D01*
X87663557Y-103073534D01*
X87747222Y-102917009D01*
X87776552Y-102881271D01*
X87859814Y-102779814D01*
X87961271Y-102696552D01*
X87997009Y-102667222D01*
X88153534Y-102583557D01*
X88323373Y-102532037D01*
X88389558Y-102525518D01*
X88455740Y-102519000D01*
X88544260Y-102519000D01*
X88610442Y-102525518D01*
X88610442Y-102525518D01*
G37*
G36*
X86070442Y-102525518D02*
G01*
X86136627Y-102532037D01*
X86306466Y-102583557D01*
X86462991Y-102667222D01*
X86498729Y-102696552D01*
X86600186Y-102779814D01*
X86683448Y-102881271D01*
X86712778Y-102917009D01*
X86796443Y-103073534D01*
X86847963Y-103243373D01*
X86865359Y-103420000D01*
X86847963Y-103596627D01*
X86796443Y-103766466D01*
X86712778Y-103922991D01*
X86683448Y-103958729D01*
X86600186Y-104060186D01*
X86498729Y-104143448D01*
X86462991Y-104172778D01*
X86306466Y-104256443D01*
X86136627Y-104307963D01*
X86070443Y-104314481D01*
X86004260Y-104321000D01*
X85915740Y-104321000D01*
X85849558Y-104314482D01*
X85783373Y-104307963D01*
X85613534Y-104256443D01*
X85457009Y-104172778D01*
X85421271Y-104143448D01*
X85319814Y-104060186D01*
X85236552Y-103958729D01*
X85207222Y-103922991D01*
X85123557Y-103766466D01*
X85072037Y-103596627D01*
X85054641Y-103420000D01*
X85072037Y-103243373D01*
X85123557Y-103073534D01*
X85207222Y-102917009D01*
X85236552Y-102881271D01*
X85319814Y-102779814D01*
X85421271Y-102696552D01*
X85457009Y-102667222D01*
X85613534Y-102583557D01*
X85783373Y-102532037D01*
X85849558Y-102525518D01*
X85915740Y-102519000D01*
X86004260Y-102519000D01*
X86070442Y-102525518D01*
X86070442Y-102525518D01*
G37*
G36*
X62683765Y-101698620D02*
G01*
X62873288Y-101777123D01*
X63043854Y-101891092D01*
X63188908Y-102036146D01*
X63188909Y-102036148D01*
X63302878Y-102206714D01*
X63381380Y-102396235D01*
X63418641Y-102583557D01*
X63421400Y-102597431D01*
X63421400Y-102802569D01*
X63381380Y-103003765D01*
X63302877Y-103193288D01*
X63188908Y-103363854D01*
X63043854Y-103508908D01*
X62873288Y-103622877D01*
X62873287Y-103622878D01*
X62873286Y-103622878D01*
X62683765Y-103701380D01*
X62482570Y-103741400D01*
X62277430Y-103741400D01*
X62076235Y-103701380D01*
X61886714Y-103622878D01*
X61886713Y-103622878D01*
X61886712Y-103622877D01*
X61716146Y-103508908D01*
X61571092Y-103363854D01*
X61457123Y-103193288D01*
X61378620Y-103003765D01*
X61338600Y-102802569D01*
X61338600Y-102597431D01*
X61341360Y-102583557D01*
X61378620Y-102396235D01*
X61457122Y-102206714D01*
X61571091Y-102036148D01*
X61571092Y-102036146D01*
X61716146Y-101891092D01*
X61886712Y-101777123D01*
X62076235Y-101698620D01*
X62277430Y-101658600D01*
X62482570Y-101658600D01*
X62683765Y-101698620D01*
X62683765Y-101698620D01*
G37*
G36*
X77923765Y-101698620D02*
G01*
X78113288Y-101777123D01*
X78283854Y-101891092D01*
X78428908Y-102036146D01*
X78428909Y-102036148D01*
X78542878Y-102206714D01*
X78621380Y-102396235D01*
X78658641Y-102583557D01*
X78661400Y-102597431D01*
X78661400Y-102802569D01*
X78621380Y-103003765D01*
X78542877Y-103193288D01*
X78428908Y-103363854D01*
X78283854Y-103508908D01*
X78113288Y-103622877D01*
X78113287Y-103622878D01*
X78113286Y-103622878D01*
X77923765Y-103701380D01*
X77722570Y-103741400D01*
X77517430Y-103741400D01*
X77316235Y-103701380D01*
X77126714Y-103622878D01*
X77126713Y-103622878D01*
X77126712Y-103622877D01*
X76956146Y-103508908D01*
X76811092Y-103363854D01*
X76697123Y-103193288D01*
X76618620Y-103003765D01*
X76578600Y-102802569D01*
X76578600Y-102597431D01*
X76581360Y-102583557D01*
X76618620Y-102396235D01*
X76697122Y-102206714D01*
X76811091Y-102036148D01*
X76811092Y-102036146D01*
X76956146Y-101891092D01*
X77126712Y-101777123D01*
X77316235Y-101698620D01*
X77517430Y-101658600D01*
X77722570Y-101658600D01*
X77923765Y-101698620D01*
X77923765Y-101698620D01*
G37*
G36*
X51570443Y-99985519D02*
G01*
X51636627Y-99992037D01*
X51806466Y-100043557D01*
X51962991Y-100127222D01*
X51998729Y-100156552D01*
X52100186Y-100239814D01*
X52183448Y-100341271D01*
X52212778Y-100377009D01*
X52296443Y-100533534D01*
X52347963Y-100703373D01*
X52365359Y-100880000D01*
X52347963Y-101056627D01*
X52296443Y-101226466D01*
X52212778Y-101382991D01*
X52183448Y-101418729D01*
X52100186Y-101520186D01*
X51998729Y-101603448D01*
X51962991Y-101632778D01*
X51806466Y-101716443D01*
X51636627Y-101767963D01*
X51570442Y-101774482D01*
X51504260Y-101781000D01*
X51415740Y-101781000D01*
X51349558Y-101774482D01*
X51283373Y-101767963D01*
X51113534Y-101716443D01*
X50957009Y-101632778D01*
X50921271Y-101603448D01*
X50819814Y-101520186D01*
X50736552Y-101418729D01*
X50707222Y-101382991D01*
X50623557Y-101226466D01*
X50572037Y-101056627D01*
X50554641Y-100880000D01*
X50572037Y-100703373D01*
X50623557Y-100533534D01*
X50707222Y-100377009D01*
X50736552Y-100341271D01*
X50819814Y-100239814D01*
X50921271Y-100156552D01*
X50957009Y-100127222D01*
X51113534Y-100043557D01*
X51283373Y-99992037D01*
X51349557Y-99985519D01*
X51415740Y-99979000D01*
X51504260Y-99979000D01*
X51570443Y-99985519D01*
X51570443Y-99985519D01*
G37*
G36*
X88610443Y-99985519D02*
G01*
X88676627Y-99992037D01*
X88846466Y-100043557D01*
X89002991Y-100127222D01*
X89038729Y-100156552D01*
X89140186Y-100239814D01*
X89223448Y-100341271D01*
X89252778Y-100377009D01*
X89336443Y-100533534D01*
X89387963Y-100703373D01*
X89405359Y-100880000D01*
X89387963Y-101056627D01*
X89336443Y-101226466D01*
X89252778Y-101382991D01*
X89223448Y-101418729D01*
X89140186Y-101520186D01*
X89038729Y-101603448D01*
X89002991Y-101632778D01*
X88846466Y-101716443D01*
X88676627Y-101767963D01*
X88610442Y-101774482D01*
X88544260Y-101781000D01*
X88455740Y-101781000D01*
X88389558Y-101774482D01*
X88323373Y-101767963D01*
X88153534Y-101716443D01*
X87997009Y-101632778D01*
X87961271Y-101603448D01*
X87859814Y-101520186D01*
X87776552Y-101418729D01*
X87747222Y-101382991D01*
X87663557Y-101226466D01*
X87612037Y-101056627D01*
X87594641Y-100880000D01*
X87612037Y-100703373D01*
X87663557Y-100533534D01*
X87747222Y-100377009D01*
X87776552Y-100341271D01*
X87859814Y-100239814D01*
X87961271Y-100156552D01*
X87997009Y-100127222D01*
X88153534Y-100043557D01*
X88323373Y-99992037D01*
X88389558Y-99985518D01*
X88455740Y-99979000D01*
X88544260Y-99979000D01*
X88610443Y-99985519D01*
X88610443Y-99985519D01*
G37*
G36*
X86070443Y-99985519D02*
G01*
X86136627Y-99992037D01*
X86306466Y-100043557D01*
X86462991Y-100127222D01*
X86498729Y-100156552D01*
X86600186Y-100239814D01*
X86683448Y-100341271D01*
X86712778Y-100377009D01*
X86796443Y-100533534D01*
X86847963Y-100703373D01*
X86865359Y-100880000D01*
X86847963Y-101056627D01*
X86796443Y-101226466D01*
X86712778Y-101382991D01*
X86683448Y-101418729D01*
X86600186Y-101520186D01*
X86498729Y-101603448D01*
X86462991Y-101632778D01*
X86306466Y-101716443D01*
X86136627Y-101767963D01*
X86070442Y-101774482D01*
X86004260Y-101781000D01*
X85915740Y-101781000D01*
X85849558Y-101774482D01*
X85783373Y-101767963D01*
X85613534Y-101716443D01*
X85457009Y-101632778D01*
X85421271Y-101603448D01*
X85319814Y-101520186D01*
X85236552Y-101418729D01*
X85207222Y-101382991D01*
X85123557Y-101226466D01*
X85072037Y-101056627D01*
X85054641Y-100880000D01*
X85072037Y-100703373D01*
X85123557Y-100533534D01*
X85207222Y-100377009D01*
X85236552Y-100341271D01*
X85319814Y-100239814D01*
X85421271Y-100156552D01*
X85457009Y-100127222D01*
X85613534Y-100043557D01*
X85783373Y-99992037D01*
X85849558Y-99985518D01*
X85915740Y-99979000D01*
X86004260Y-99979000D01*
X86070443Y-99985519D01*
X86070443Y-99985519D01*
G37*
G36*
X54110443Y-99985519D02*
G01*
X54176627Y-99992037D01*
X54346466Y-100043557D01*
X54502991Y-100127222D01*
X54538729Y-100156552D01*
X54640186Y-100239814D01*
X54723448Y-100341271D01*
X54752778Y-100377009D01*
X54836443Y-100533534D01*
X54887963Y-100703373D01*
X54905359Y-100880000D01*
X54887963Y-101056627D01*
X54836443Y-101226466D01*
X54752778Y-101382991D01*
X54723448Y-101418729D01*
X54640186Y-101520186D01*
X54538729Y-101603448D01*
X54502991Y-101632778D01*
X54346466Y-101716443D01*
X54176627Y-101767963D01*
X54110442Y-101774482D01*
X54044260Y-101781000D01*
X53955740Y-101781000D01*
X53889558Y-101774482D01*
X53823373Y-101767963D01*
X53653534Y-101716443D01*
X53497009Y-101632778D01*
X53461271Y-101603448D01*
X53359814Y-101520186D01*
X53276552Y-101418729D01*
X53247222Y-101382991D01*
X53163557Y-101226466D01*
X53112037Y-101056627D01*
X53094641Y-100880000D01*
X53112037Y-100703373D01*
X53163557Y-100533534D01*
X53247222Y-100377009D01*
X53276552Y-100341271D01*
X53359814Y-100239814D01*
X53461271Y-100156552D01*
X53497009Y-100127222D01*
X53653534Y-100043557D01*
X53823373Y-99992037D01*
X53889557Y-99985519D01*
X53955740Y-99979000D01*
X54044260Y-99979000D01*
X54110443Y-99985519D01*
X54110443Y-99985519D01*
G37*
G36*
X96875256Y-98391298D02*
G01*
X96981579Y-98412447D01*
X97194037Y-98500450D01*
X97233092Y-98516627D01*
X97282042Y-98536903D01*
X97552451Y-98717585D01*
X97782415Y-98947549D01*
X97935357Y-99176443D01*
X97963098Y-99217960D01*
X97972641Y-99241000D01*
X98087553Y-99518421D01*
X98151000Y-99837391D01*
X98151000Y-100162609D01*
X98087553Y-100481579D01*
X97963097Y-100782042D01*
X97782415Y-101052451D01*
X97552451Y-101282415D01*
X97282042Y-101463097D01*
X96981579Y-101587553D01*
X96875256Y-101608702D01*
X96662611Y-101651000D01*
X96337389Y-101651000D01*
X96124744Y-101608702D01*
X96018421Y-101587553D01*
X95717958Y-101463097D01*
X95447549Y-101282415D01*
X95217585Y-101052451D01*
X95036903Y-100782042D01*
X94912447Y-100481579D01*
X94849000Y-100162609D01*
X94849000Y-99837391D01*
X94912447Y-99518421D01*
X95027359Y-99241000D01*
X95036902Y-99217960D01*
X95064643Y-99176443D01*
X95217585Y-98947549D01*
X95447549Y-98717585D01*
X95717958Y-98536903D01*
X95766909Y-98516627D01*
X95805963Y-98500450D01*
X96018421Y-98412447D01*
X96124744Y-98391298D01*
X96337389Y-98349000D01*
X96662611Y-98349000D01*
X96875256Y-98391298D01*
X96875256Y-98391298D01*
G37*
G36*
X43875256Y-98391298D02*
G01*
X43981579Y-98412447D01*
X44194037Y-98500450D01*
X44233092Y-98516627D01*
X44282042Y-98536903D01*
X44552451Y-98717585D01*
X44782415Y-98947549D01*
X44935357Y-99176443D01*
X44963098Y-99217960D01*
X44972641Y-99241000D01*
X45087553Y-99518421D01*
X45151000Y-99837391D01*
X45151000Y-100162609D01*
X45087553Y-100481579D01*
X44963097Y-100782042D01*
X44782415Y-101052451D01*
X44552451Y-101282415D01*
X44282042Y-101463097D01*
X43981579Y-101587553D01*
X43875256Y-101608702D01*
X43662611Y-101651000D01*
X43337389Y-101651000D01*
X43124744Y-101608702D01*
X43018421Y-101587553D01*
X42717958Y-101463097D01*
X42447549Y-101282415D01*
X42217585Y-101052451D01*
X42036903Y-100782042D01*
X41912447Y-100481579D01*
X41849000Y-100162609D01*
X41849000Y-99837391D01*
X41912447Y-99518421D01*
X42027359Y-99241000D01*
X42036902Y-99217960D01*
X42064643Y-99176443D01*
X42217585Y-98947549D01*
X42447549Y-98717585D01*
X42717958Y-98536903D01*
X42766909Y-98516627D01*
X42805963Y-98500450D01*
X43018421Y-98412447D01*
X43124744Y-98391298D01*
X43337389Y-98349000D01*
X43662611Y-98349000D01*
X43875256Y-98391298D01*
X43875256Y-98391298D01*
G37*
G36*
X77923765Y-99158620D02*
G01*
X78067025Y-99217960D01*
X78113288Y-99237123D01*
X78283854Y-99351092D01*
X78428908Y-99496146D01*
X78443792Y-99518422D01*
X78542878Y-99666714D01*
X78621380Y-99856235D01*
X78658641Y-100043557D01*
X78661400Y-100057431D01*
X78661400Y-100262569D01*
X78621380Y-100463765D01*
X78542877Y-100653288D01*
X78428908Y-100823854D01*
X78283854Y-100968908D01*
X78113288Y-101082877D01*
X78113287Y-101082878D01*
X78113286Y-101082878D01*
X77923765Y-101161380D01*
X77722570Y-101201400D01*
X77517430Y-101201400D01*
X77316235Y-101161380D01*
X77126714Y-101082878D01*
X77126713Y-101082878D01*
X77126712Y-101082877D01*
X76956146Y-100968908D01*
X76811092Y-100823854D01*
X76697123Y-100653288D01*
X76618620Y-100463765D01*
X76578600Y-100262569D01*
X76578600Y-100057431D01*
X76581360Y-100043557D01*
X76618620Y-99856235D01*
X76697122Y-99666714D01*
X76796208Y-99518422D01*
X76811092Y-99496146D01*
X76956146Y-99351092D01*
X77126712Y-99237123D01*
X77172976Y-99217960D01*
X77316235Y-99158620D01*
X77517430Y-99118600D01*
X77722570Y-99118600D01*
X77923765Y-99158620D01*
X77923765Y-99158620D01*
G37*
G36*
X62683765Y-99158620D02*
G01*
X62827025Y-99217960D01*
X62873288Y-99237123D01*
X63043854Y-99351092D01*
X63188908Y-99496146D01*
X63203792Y-99518422D01*
X63302878Y-99666714D01*
X63381380Y-99856235D01*
X63418641Y-100043557D01*
X63421400Y-100057431D01*
X63421400Y-100262569D01*
X63381380Y-100463765D01*
X63302877Y-100653288D01*
X63188908Y-100823854D01*
X63043854Y-100968908D01*
X62873288Y-101082877D01*
X62873287Y-101082878D01*
X62873286Y-101082878D01*
X62683765Y-101161380D01*
X62482570Y-101201400D01*
X62277430Y-101201400D01*
X62076235Y-101161380D01*
X61886714Y-101082878D01*
X61886713Y-101082878D01*
X61886712Y-101082877D01*
X61716146Y-100968908D01*
X61571092Y-100823854D01*
X61457123Y-100653288D01*
X61378620Y-100463765D01*
X61338600Y-100262569D01*
X61338600Y-100057431D01*
X61341360Y-100043557D01*
X61378620Y-99856235D01*
X61457122Y-99666714D01*
X61556208Y-99518422D01*
X61571092Y-99496146D01*
X61716146Y-99351092D01*
X61886712Y-99237123D01*
X61932976Y-99217960D01*
X62076235Y-99158620D01*
X62277430Y-99118600D01*
X62482570Y-99118600D01*
X62683765Y-99158620D01*
X62683765Y-99158620D01*
G37*
G36*
X51570442Y-97445518D02*
G01*
X51636627Y-97452037D01*
X51806466Y-97503557D01*
X51962991Y-97587222D01*
X51998729Y-97616552D01*
X52100186Y-97699814D01*
X52183448Y-97801271D01*
X52212778Y-97837009D01*
X52296443Y-97993534D01*
X52347963Y-98163373D01*
X52365359Y-98340000D01*
X52347963Y-98516627D01*
X52296443Y-98686466D01*
X52212778Y-98842991D01*
X52183448Y-98878729D01*
X52100186Y-98980186D01*
X51998729Y-99063448D01*
X51962991Y-99092778D01*
X51806466Y-99176443D01*
X51636627Y-99227963D01*
X51570443Y-99234481D01*
X51504260Y-99241000D01*
X51415740Y-99241000D01*
X51349557Y-99234481D01*
X51283373Y-99227963D01*
X51113534Y-99176443D01*
X50957009Y-99092778D01*
X50921271Y-99063448D01*
X50819814Y-98980186D01*
X50736552Y-98878729D01*
X50707222Y-98842991D01*
X50623557Y-98686466D01*
X50572037Y-98516627D01*
X50554641Y-98340000D01*
X50572037Y-98163373D01*
X50623557Y-97993534D01*
X50707222Y-97837009D01*
X50736552Y-97801271D01*
X50819814Y-97699814D01*
X50921271Y-97616552D01*
X50957009Y-97587222D01*
X51113534Y-97503557D01*
X51283373Y-97452037D01*
X51349558Y-97445518D01*
X51415740Y-97439000D01*
X51504260Y-97439000D01*
X51570442Y-97445518D01*
X51570442Y-97445518D01*
G37*
G36*
X54110442Y-97445518D02*
G01*
X54176627Y-97452037D01*
X54346466Y-97503557D01*
X54502991Y-97587222D01*
X54538729Y-97616552D01*
X54640186Y-97699814D01*
X54723448Y-97801271D01*
X54752778Y-97837009D01*
X54836443Y-97993534D01*
X54887963Y-98163373D01*
X54905359Y-98340000D01*
X54887963Y-98516627D01*
X54836443Y-98686466D01*
X54752778Y-98842991D01*
X54723448Y-98878729D01*
X54640186Y-98980186D01*
X54538729Y-99063448D01*
X54502991Y-99092778D01*
X54346466Y-99176443D01*
X54176627Y-99227963D01*
X54110443Y-99234481D01*
X54044260Y-99241000D01*
X53955740Y-99241000D01*
X53889557Y-99234481D01*
X53823373Y-99227963D01*
X53653534Y-99176443D01*
X53497009Y-99092778D01*
X53461271Y-99063448D01*
X53359814Y-98980186D01*
X53276552Y-98878729D01*
X53247222Y-98842991D01*
X53163557Y-98686466D01*
X53112037Y-98516627D01*
X53094641Y-98340000D01*
X53112037Y-98163373D01*
X53163557Y-97993534D01*
X53247222Y-97837009D01*
X53276552Y-97801271D01*
X53359814Y-97699814D01*
X53461271Y-97616552D01*
X53497009Y-97587222D01*
X53653534Y-97503557D01*
X53823373Y-97452037D01*
X53889558Y-97445518D01*
X53955740Y-97439000D01*
X54044260Y-97439000D01*
X54110442Y-97445518D01*
X54110442Y-97445518D01*
G37*
G36*
X86070442Y-97445518D02*
G01*
X86136627Y-97452037D01*
X86306466Y-97503557D01*
X86462991Y-97587222D01*
X86498729Y-97616552D01*
X86600186Y-97699814D01*
X86683448Y-97801271D01*
X86712778Y-97837009D01*
X86796443Y-97993534D01*
X86847963Y-98163373D01*
X86865359Y-98340000D01*
X86847963Y-98516627D01*
X86796443Y-98686466D01*
X86712778Y-98842991D01*
X86683448Y-98878729D01*
X86600186Y-98980186D01*
X86498729Y-99063448D01*
X86462991Y-99092778D01*
X86306466Y-99176443D01*
X86136627Y-99227963D01*
X86070443Y-99234481D01*
X86004260Y-99241000D01*
X85915740Y-99241000D01*
X85849557Y-99234481D01*
X85783373Y-99227963D01*
X85613534Y-99176443D01*
X85457009Y-99092778D01*
X85421271Y-99063448D01*
X85319814Y-98980186D01*
X85236552Y-98878729D01*
X85207222Y-98842991D01*
X85123557Y-98686466D01*
X85072037Y-98516627D01*
X85054641Y-98340000D01*
X85072037Y-98163373D01*
X85123557Y-97993534D01*
X85207222Y-97837009D01*
X85236552Y-97801271D01*
X85319814Y-97699814D01*
X85421271Y-97616552D01*
X85457009Y-97587222D01*
X85613534Y-97503557D01*
X85783373Y-97452037D01*
X85849557Y-97445519D01*
X85915740Y-97439000D01*
X86004260Y-97439000D01*
X86070442Y-97445518D01*
X86070442Y-97445518D01*
G37*
G36*
X88610442Y-97445518D02*
G01*
X88676627Y-97452037D01*
X88846466Y-97503557D01*
X89002991Y-97587222D01*
X89038729Y-97616552D01*
X89140186Y-97699814D01*
X89223448Y-97801271D01*
X89252778Y-97837009D01*
X89336443Y-97993534D01*
X89387963Y-98163373D01*
X89405359Y-98340000D01*
X89387963Y-98516627D01*
X89336443Y-98686466D01*
X89252778Y-98842991D01*
X89223448Y-98878729D01*
X89140186Y-98980186D01*
X89038729Y-99063448D01*
X89002991Y-99092778D01*
X88846466Y-99176443D01*
X88676627Y-99227963D01*
X88610443Y-99234481D01*
X88544260Y-99241000D01*
X88455740Y-99241000D01*
X88389557Y-99234481D01*
X88323373Y-99227963D01*
X88153534Y-99176443D01*
X87997009Y-99092778D01*
X87961271Y-99063448D01*
X87859814Y-98980186D01*
X87776552Y-98878729D01*
X87747222Y-98842991D01*
X87663557Y-98686466D01*
X87612037Y-98516627D01*
X87594641Y-98340000D01*
X87612037Y-98163373D01*
X87663557Y-97993534D01*
X87747222Y-97837009D01*
X87776552Y-97801271D01*
X87859814Y-97699814D01*
X87961271Y-97616552D01*
X87997009Y-97587222D01*
X88153534Y-97503557D01*
X88323373Y-97452037D01*
X88389557Y-97445519D01*
X88455740Y-97439000D01*
X88544260Y-97439000D01*
X88610442Y-97445518D01*
X88610442Y-97445518D01*
G37*
G36*
X62683765Y-96618620D02*
G01*
X62873288Y-96697123D01*
X63043854Y-96811092D01*
X63188908Y-96956146D01*
X63188909Y-96956148D01*
X63302878Y-97126714D01*
X63381380Y-97316235D01*
X63418641Y-97503557D01*
X63421400Y-97517431D01*
X63421400Y-97722569D01*
X63381380Y-97923765D01*
X63302877Y-98113288D01*
X63188908Y-98283854D01*
X63043854Y-98428908D01*
X62873288Y-98542877D01*
X62873287Y-98542878D01*
X62873286Y-98542878D01*
X62683765Y-98621380D01*
X62482570Y-98661400D01*
X62277430Y-98661400D01*
X62076235Y-98621380D01*
X61886714Y-98542878D01*
X61886713Y-98542878D01*
X61886712Y-98542877D01*
X61716146Y-98428908D01*
X61571092Y-98283854D01*
X61457123Y-98113288D01*
X61378620Y-97923765D01*
X61338600Y-97722569D01*
X61338600Y-97517431D01*
X61341360Y-97503557D01*
X61378620Y-97316235D01*
X61457122Y-97126714D01*
X61571091Y-96956148D01*
X61571092Y-96956146D01*
X61716146Y-96811092D01*
X61886712Y-96697123D01*
X62076235Y-96618620D01*
X62277430Y-96578600D01*
X62482570Y-96578600D01*
X62683765Y-96618620D01*
X62683765Y-96618620D01*
G37*
G36*
X77923765Y-96618620D02*
G01*
X78113288Y-96697123D01*
X78283854Y-96811092D01*
X78428908Y-96956146D01*
X78428909Y-96956148D01*
X78542878Y-97126714D01*
X78621380Y-97316235D01*
X78658641Y-97503557D01*
X78661400Y-97517431D01*
X78661400Y-97722569D01*
X78621380Y-97923765D01*
X78542877Y-98113288D01*
X78428908Y-98283854D01*
X78283854Y-98428908D01*
X78113288Y-98542877D01*
X78113287Y-98542878D01*
X78113286Y-98542878D01*
X77923765Y-98621380D01*
X77722570Y-98661400D01*
X77517430Y-98661400D01*
X77316235Y-98621380D01*
X77126714Y-98542878D01*
X77126713Y-98542878D01*
X77126712Y-98542877D01*
X76956146Y-98428908D01*
X76811092Y-98283854D01*
X76697123Y-98113288D01*
X76618620Y-97923765D01*
X76578600Y-97722569D01*
X76578600Y-97517431D01*
X76581360Y-97503557D01*
X76618620Y-97316235D01*
X76697122Y-97126714D01*
X76811091Y-96956148D01*
X76811092Y-96956146D01*
X76956146Y-96811092D01*
X77126712Y-96697123D01*
X77316235Y-96618620D01*
X77517430Y-96578600D01*
X77722570Y-96578600D01*
X77923765Y-96618620D01*
X77923765Y-96618620D01*
G37*
G36*
X51570443Y-94905519D02*
G01*
X51636627Y-94912037D01*
X51806466Y-94963557D01*
X51962991Y-95047222D01*
X51998729Y-95076552D01*
X52100186Y-95159814D01*
X52183448Y-95261271D01*
X52212778Y-95297009D01*
X52296443Y-95453534D01*
X52347963Y-95623373D01*
X52365359Y-95800000D01*
X52347963Y-95976627D01*
X52296443Y-96146466D01*
X52212778Y-96302991D01*
X52183448Y-96338729D01*
X52100186Y-96440186D01*
X51998729Y-96523448D01*
X51962991Y-96552778D01*
X51806466Y-96636443D01*
X51636627Y-96687963D01*
X51570442Y-96694482D01*
X51504260Y-96701000D01*
X51415740Y-96701000D01*
X51349558Y-96694482D01*
X51283373Y-96687963D01*
X51113534Y-96636443D01*
X50957009Y-96552778D01*
X50921271Y-96523448D01*
X50819814Y-96440186D01*
X50736552Y-96338729D01*
X50707222Y-96302991D01*
X50623557Y-96146466D01*
X50572037Y-95976627D01*
X50554641Y-95800000D01*
X50572037Y-95623373D01*
X50623557Y-95453534D01*
X50707222Y-95297009D01*
X50736552Y-95261271D01*
X50819814Y-95159814D01*
X50921271Y-95076552D01*
X50957009Y-95047222D01*
X51113534Y-94963557D01*
X51283373Y-94912037D01*
X51349557Y-94905519D01*
X51415740Y-94899000D01*
X51504260Y-94899000D01*
X51570443Y-94905519D01*
X51570443Y-94905519D01*
G37*
G36*
X86070443Y-94905519D02*
G01*
X86136627Y-94912037D01*
X86306466Y-94963557D01*
X86462991Y-95047222D01*
X86498729Y-95076552D01*
X86600186Y-95159814D01*
X86683448Y-95261271D01*
X86712778Y-95297009D01*
X86796443Y-95453534D01*
X86847963Y-95623373D01*
X86865359Y-95800000D01*
X86847963Y-95976627D01*
X86796443Y-96146466D01*
X86712778Y-96302991D01*
X86683448Y-96338729D01*
X86600186Y-96440186D01*
X86498729Y-96523448D01*
X86462991Y-96552778D01*
X86306466Y-96636443D01*
X86136627Y-96687963D01*
X86070442Y-96694482D01*
X86004260Y-96701000D01*
X85915740Y-96701000D01*
X85849558Y-96694482D01*
X85783373Y-96687963D01*
X85613534Y-96636443D01*
X85457009Y-96552778D01*
X85421271Y-96523448D01*
X85319814Y-96440186D01*
X85236552Y-96338729D01*
X85207222Y-96302991D01*
X85123557Y-96146466D01*
X85072037Y-95976627D01*
X85054641Y-95800000D01*
X85072037Y-95623373D01*
X85123557Y-95453534D01*
X85207222Y-95297009D01*
X85236552Y-95261271D01*
X85319814Y-95159814D01*
X85421271Y-95076552D01*
X85457009Y-95047222D01*
X85613534Y-94963557D01*
X85783373Y-94912037D01*
X85849557Y-94905519D01*
X85915740Y-94899000D01*
X86004260Y-94899000D01*
X86070443Y-94905519D01*
X86070443Y-94905519D01*
G37*
G36*
X88610443Y-94905519D02*
G01*
X88676627Y-94912037D01*
X88846466Y-94963557D01*
X89002991Y-95047222D01*
X89038729Y-95076552D01*
X89140186Y-95159814D01*
X89223448Y-95261271D01*
X89252778Y-95297009D01*
X89336443Y-95453534D01*
X89387963Y-95623373D01*
X89405359Y-95800000D01*
X89387963Y-95976627D01*
X89336443Y-96146466D01*
X89252778Y-96302991D01*
X89223448Y-96338729D01*
X89140186Y-96440186D01*
X89038729Y-96523448D01*
X89002991Y-96552778D01*
X88846466Y-96636443D01*
X88676627Y-96687963D01*
X88610442Y-96694482D01*
X88544260Y-96701000D01*
X88455740Y-96701000D01*
X88389558Y-96694482D01*
X88323373Y-96687963D01*
X88153534Y-96636443D01*
X87997009Y-96552778D01*
X87961271Y-96523448D01*
X87859814Y-96440186D01*
X87776552Y-96338729D01*
X87747222Y-96302991D01*
X87663557Y-96146466D01*
X87612037Y-95976627D01*
X87594641Y-95800000D01*
X87612037Y-95623373D01*
X87663557Y-95453534D01*
X87747222Y-95297009D01*
X87776552Y-95261271D01*
X87859814Y-95159814D01*
X87961271Y-95076552D01*
X87997009Y-95047222D01*
X88153534Y-94963557D01*
X88323373Y-94912037D01*
X88389557Y-94905519D01*
X88455740Y-94899000D01*
X88544260Y-94899000D01*
X88610443Y-94905519D01*
X88610443Y-94905519D01*
G37*
G36*
X54110443Y-94905519D02*
G01*
X54176627Y-94912037D01*
X54346466Y-94963557D01*
X54502991Y-95047222D01*
X54538729Y-95076552D01*
X54640186Y-95159814D01*
X54723448Y-95261271D01*
X54752778Y-95297009D01*
X54836443Y-95453534D01*
X54887963Y-95623373D01*
X54905359Y-95800000D01*
X54887963Y-95976627D01*
X54836443Y-96146466D01*
X54752778Y-96302991D01*
X54723448Y-96338729D01*
X54640186Y-96440186D01*
X54538729Y-96523448D01*
X54502991Y-96552778D01*
X54346466Y-96636443D01*
X54176627Y-96687963D01*
X54110442Y-96694482D01*
X54044260Y-96701000D01*
X53955740Y-96701000D01*
X53889558Y-96694482D01*
X53823373Y-96687963D01*
X53653534Y-96636443D01*
X53497009Y-96552778D01*
X53461271Y-96523448D01*
X53359814Y-96440186D01*
X53276552Y-96338729D01*
X53247222Y-96302991D01*
X53163557Y-96146466D01*
X53112037Y-95976627D01*
X53094641Y-95800000D01*
X53112037Y-95623373D01*
X53163557Y-95453534D01*
X53247222Y-95297009D01*
X53276552Y-95261271D01*
X53359814Y-95159814D01*
X53461271Y-95076552D01*
X53497009Y-95047222D01*
X53653534Y-94963557D01*
X53823373Y-94912037D01*
X53889557Y-94905519D01*
X53955740Y-94899000D01*
X54044260Y-94899000D01*
X54110443Y-94905519D01*
X54110443Y-94905519D01*
G37*
G36*
X77923765Y-94078620D02*
G01*
X78113288Y-94157123D01*
X78283854Y-94271092D01*
X78428908Y-94416146D01*
X78428909Y-94416148D01*
X78542878Y-94586714D01*
X78621380Y-94776235D01*
X78658641Y-94963557D01*
X78661400Y-94977431D01*
X78661400Y-95182569D01*
X78621380Y-95383765D01*
X78542877Y-95573288D01*
X78428908Y-95743854D01*
X78283854Y-95888908D01*
X78113288Y-96002877D01*
X78113287Y-96002878D01*
X78113286Y-96002878D01*
X77923765Y-96081380D01*
X77722570Y-96121400D01*
X77517430Y-96121400D01*
X77316235Y-96081380D01*
X77126714Y-96002878D01*
X77126713Y-96002878D01*
X77126712Y-96002877D01*
X76956146Y-95888908D01*
X76811092Y-95743854D01*
X76697123Y-95573288D01*
X76618620Y-95383765D01*
X76578600Y-95182569D01*
X76578600Y-94977431D01*
X76581360Y-94963557D01*
X76618620Y-94776235D01*
X76697122Y-94586714D01*
X76811091Y-94416148D01*
X76811092Y-94416146D01*
X76956146Y-94271092D01*
X77126712Y-94157123D01*
X77316235Y-94078620D01*
X77517430Y-94038600D01*
X77722570Y-94038600D01*
X77923765Y-94078620D01*
X77923765Y-94078620D01*
G37*
G36*
X62683765Y-94078620D02*
G01*
X62873288Y-94157123D01*
X63043854Y-94271092D01*
X63188908Y-94416146D01*
X63188909Y-94416148D01*
X63302878Y-94586714D01*
X63381380Y-94776235D01*
X63418641Y-94963557D01*
X63421400Y-94977431D01*
X63421400Y-95182569D01*
X63381380Y-95383765D01*
X63302877Y-95573288D01*
X63188908Y-95743854D01*
X63043854Y-95888908D01*
X62873288Y-96002877D01*
X62873287Y-96002878D01*
X62873286Y-96002878D01*
X62683765Y-96081380D01*
X62482570Y-96121400D01*
X62277430Y-96121400D01*
X62076235Y-96081380D01*
X61886714Y-96002878D01*
X61886713Y-96002878D01*
X61886712Y-96002877D01*
X61716146Y-95888908D01*
X61571092Y-95743854D01*
X61457123Y-95573288D01*
X61378620Y-95383765D01*
X61338600Y-95182569D01*
X61338600Y-94977431D01*
X61341360Y-94963557D01*
X61378620Y-94776235D01*
X61457122Y-94586714D01*
X61571091Y-94416148D01*
X61571092Y-94416146D01*
X61716146Y-94271092D01*
X61886712Y-94157123D01*
X62076235Y-94078620D01*
X62277430Y-94038600D01*
X62482570Y-94038600D01*
X62683765Y-94078620D01*
X62683765Y-94078620D01*
G37*
G36*
X51570442Y-92365518D02*
G01*
X51636627Y-92372037D01*
X51806466Y-92423557D01*
X51962991Y-92507222D01*
X51998729Y-92536552D01*
X52100186Y-92619814D01*
X52183448Y-92721271D01*
X52212778Y-92757009D01*
X52296443Y-92913534D01*
X52347963Y-93083373D01*
X52365359Y-93260000D01*
X52347963Y-93436627D01*
X52296443Y-93606466D01*
X52212778Y-93762991D01*
X52183448Y-93798729D01*
X52100186Y-93900186D01*
X51998729Y-93983448D01*
X51962991Y-94012778D01*
X51806466Y-94096443D01*
X51636627Y-94147963D01*
X51570442Y-94154482D01*
X51504260Y-94161000D01*
X51415740Y-94161000D01*
X51349558Y-94154482D01*
X51283373Y-94147963D01*
X51113534Y-94096443D01*
X50957009Y-94012778D01*
X50921271Y-93983448D01*
X50819814Y-93900186D01*
X50736552Y-93798729D01*
X50707222Y-93762991D01*
X50623557Y-93606466D01*
X50572037Y-93436627D01*
X50554641Y-93260000D01*
X50572037Y-93083373D01*
X50623557Y-92913534D01*
X50707222Y-92757009D01*
X50736552Y-92721271D01*
X50819814Y-92619814D01*
X50921271Y-92536552D01*
X50957009Y-92507222D01*
X51113534Y-92423557D01*
X51283373Y-92372037D01*
X51349558Y-92365518D01*
X51415740Y-92359000D01*
X51504260Y-92359000D01*
X51570442Y-92365518D01*
X51570442Y-92365518D01*
G37*
G36*
X54110442Y-92365518D02*
G01*
X54176627Y-92372037D01*
X54346466Y-92423557D01*
X54502991Y-92507222D01*
X54538729Y-92536552D01*
X54640186Y-92619814D01*
X54723448Y-92721271D01*
X54752778Y-92757009D01*
X54836443Y-92913534D01*
X54887963Y-93083373D01*
X54905359Y-93260000D01*
X54887963Y-93436627D01*
X54836443Y-93606466D01*
X54752778Y-93762991D01*
X54723448Y-93798729D01*
X54640186Y-93900186D01*
X54538729Y-93983448D01*
X54502991Y-94012778D01*
X54346466Y-94096443D01*
X54176627Y-94147963D01*
X54110442Y-94154482D01*
X54044260Y-94161000D01*
X53955740Y-94161000D01*
X53889558Y-94154482D01*
X53823373Y-94147963D01*
X53653534Y-94096443D01*
X53497009Y-94012778D01*
X53461271Y-93983448D01*
X53359814Y-93900186D01*
X53276552Y-93798729D01*
X53247222Y-93762991D01*
X53163557Y-93606466D01*
X53112037Y-93436627D01*
X53094641Y-93260000D01*
X53112037Y-93083373D01*
X53163557Y-92913534D01*
X53247222Y-92757009D01*
X53276552Y-92721271D01*
X53359814Y-92619814D01*
X53461271Y-92536552D01*
X53497009Y-92507222D01*
X53653534Y-92423557D01*
X53823373Y-92372037D01*
X53889558Y-92365518D01*
X53955740Y-92359000D01*
X54044260Y-92359000D01*
X54110442Y-92365518D01*
X54110442Y-92365518D01*
G37*
G36*
X88610442Y-92365518D02*
G01*
X88676627Y-92372037D01*
X88846466Y-92423557D01*
X89002991Y-92507222D01*
X89038729Y-92536552D01*
X89140186Y-92619814D01*
X89223448Y-92721271D01*
X89252778Y-92757009D01*
X89336443Y-92913534D01*
X89387963Y-93083373D01*
X89405359Y-93260000D01*
X89387963Y-93436627D01*
X89336443Y-93606466D01*
X89252778Y-93762991D01*
X89223448Y-93798729D01*
X89140186Y-93900186D01*
X89038729Y-93983448D01*
X89002991Y-94012778D01*
X88846466Y-94096443D01*
X88676627Y-94147963D01*
X88610442Y-94154482D01*
X88544260Y-94161000D01*
X88455740Y-94161000D01*
X88389558Y-94154482D01*
X88323373Y-94147963D01*
X88153534Y-94096443D01*
X87997009Y-94012778D01*
X87961271Y-93983448D01*
X87859814Y-93900186D01*
X87776552Y-93798729D01*
X87747222Y-93762991D01*
X87663557Y-93606466D01*
X87612037Y-93436627D01*
X87594641Y-93260000D01*
X87612037Y-93083373D01*
X87663557Y-92913534D01*
X87747222Y-92757009D01*
X87776552Y-92721271D01*
X87859814Y-92619814D01*
X87961271Y-92536552D01*
X87997009Y-92507222D01*
X88153534Y-92423557D01*
X88323373Y-92372037D01*
X88389558Y-92365518D01*
X88455740Y-92359000D01*
X88544260Y-92359000D01*
X88610442Y-92365518D01*
X88610442Y-92365518D01*
G37*
G36*
X86070442Y-92365518D02*
G01*
X86136627Y-92372037D01*
X86306466Y-92423557D01*
X86462991Y-92507222D01*
X86498729Y-92536552D01*
X86600186Y-92619814D01*
X86683448Y-92721271D01*
X86712778Y-92757009D01*
X86796443Y-92913534D01*
X86847963Y-93083373D01*
X86865359Y-93260000D01*
X86847963Y-93436627D01*
X86796443Y-93606466D01*
X86712778Y-93762991D01*
X86683448Y-93798729D01*
X86600186Y-93900186D01*
X86498729Y-93983448D01*
X86462991Y-94012778D01*
X86306466Y-94096443D01*
X86136627Y-94147963D01*
X86070442Y-94154482D01*
X86004260Y-94161000D01*
X85915740Y-94161000D01*
X85849558Y-94154482D01*
X85783373Y-94147963D01*
X85613534Y-94096443D01*
X85457009Y-94012778D01*
X85421271Y-93983448D01*
X85319814Y-93900186D01*
X85236552Y-93798729D01*
X85207222Y-93762991D01*
X85123557Y-93606466D01*
X85072037Y-93436627D01*
X85054641Y-93260000D01*
X85072037Y-93083373D01*
X85123557Y-92913534D01*
X85207222Y-92757009D01*
X85236552Y-92721271D01*
X85319814Y-92619814D01*
X85421271Y-92536552D01*
X85457009Y-92507222D01*
X85613534Y-92423557D01*
X85783373Y-92372037D01*
X85849558Y-92365518D01*
X85915740Y-92359000D01*
X86004260Y-92359000D01*
X86070442Y-92365518D01*
X86070442Y-92365518D01*
G37*
G36*
X62683765Y-91538620D02*
G01*
X62873288Y-91617123D01*
X63043854Y-91731092D01*
X63188908Y-91876146D01*
X63188909Y-91876148D01*
X63302878Y-92046714D01*
X63381380Y-92236235D01*
X63418641Y-92423557D01*
X63421400Y-92437431D01*
X63421400Y-92642569D01*
X63381380Y-92843765D01*
X63302877Y-93033288D01*
X63188908Y-93203854D01*
X63043854Y-93348908D01*
X62873288Y-93462877D01*
X62873287Y-93462878D01*
X62873286Y-93462878D01*
X62683765Y-93541380D01*
X62482570Y-93581400D01*
X62277430Y-93581400D01*
X62076235Y-93541380D01*
X61886714Y-93462878D01*
X61886713Y-93462878D01*
X61886712Y-93462877D01*
X61716146Y-93348908D01*
X61571092Y-93203854D01*
X61457123Y-93033288D01*
X61378620Y-92843765D01*
X61338600Y-92642569D01*
X61338600Y-92437431D01*
X61341360Y-92423557D01*
X61378620Y-92236235D01*
X61457122Y-92046714D01*
X61571091Y-91876148D01*
X61571092Y-91876146D01*
X61716146Y-91731092D01*
X61886712Y-91617123D01*
X62076235Y-91538620D01*
X62277430Y-91498600D01*
X62482570Y-91498600D01*
X62683765Y-91538620D01*
X62683765Y-91538620D01*
G37*
G36*
X77923765Y-91538620D02*
G01*
X78113288Y-91617123D01*
X78283854Y-91731092D01*
X78428908Y-91876146D01*
X78428909Y-91876148D01*
X78542878Y-92046714D01*
X78621380Y-92236235D01*
X78658641Y-92423557D01*
X78661400Y-92437431D01*
X78661400Y-92642569D01*
X78621380Y-92843765D01*
X78542877Y-93033288D01*
X78428908Y-93203854D01*
X78283854Y-93348908D01*
X78113288Y-93462877D01*
X78113287Y-93462878D01*
X78113286Y-93462878D01*
X77923765Y-93541380D01*
X77722570Y-93581400D01*
X77517430Y-93581400D01*
X77316235Y-93541380D01*
X77126714Y-93462878D01*
X77126713Y-93462878D01*
X77126712Y-93462877D01*
X76956146Y-93348908D01*
X76811092Y-93203854D01*
X76697123Y-93033288D01*
X76618620Y-92843765D01*
X76578600Y-92642569D01*
X76578600Y-92437431D01*
X76581360Y-92423557D01*
X76618620Y-92236235D01*
X76697122Y-92046714D01*
X76811091Y-91876148D01*
X76811092Y-91876146D01*
X76956146Y-91731092D01*
X77126712Y-91617123D01*
X77316235Y-91538620D01*
X77517430Y-91498600D01*
X77722570Y-91498600D01*
X77923765Y-91538620D01*
X77923765Y-91538620D01*
G37*
G36*
X86070442Y-89825518D02*
G01*
X86136627Y-89832037D01*
X86306466Y-89883557D01*
X86462991Y-89967222D01*
X86498729Y-89996552D01*
X86600186Y-90079814D01*
X86683448Y-90181271D01*
X86712778Y-90217009D01*
X86796443Y-90373534D01*
X86847963Y-90543373D01*
X86865359Y-90720000D01*
X86847963Y-90896627D01*
X86796443Y-91066466D01*
X86712778Y-91222991D01*
X86683448Y-91258729D01*
X86600186Y-91360186D01*
X86498729Y-91443448D01*
X86462991Y-91472778D01*
X86306466Y-91556443D01*
X86136627Y-91607963D01*
X86070442Y-91614482D01*
X86004260Y-91621000D01*
X85915740Y-91621000D01*
X85849558Y-91614482D01*
X85783373Y-91607963D01*
X85613534Y-91556443D01*
X85457009Y-91472778D01*
X85421271Y-91443448D01*
X85319814Y-91360186D01*
X85236552Y-91258729D01*
X85207222Y-91222991D01*
X85123557Y-91066466D01*
X85072037Y-90896627D01*
X85054641Y-90720000D01*
X85072037Y-90543373D01*
X85123557Y-90373534D01*
X85207222Y-90217009D01*
X85236552Y-90181271D01*
X85319814Y-90079814D01*
X85421271Y-89996552D01*
X85457009Y-89967222D01*
X85613534Y-89883557D01*
X85783373Y-89832037D01*
X85849558Y-89825518D01*
X85915740Y-89819000D01*
X86004260Y-89819000D01*
X86070442Y-89825518D01*
X86070442Y-89825518D01*
G37*
G36*
X88610442Y-89825518D02*
G01*
X88676627Y-89832037D01*
X88846466Y-89883557D01*
X89002991Y-89967222D01*
X89038729Y-89996552D01*
X89140186Y-90079814D01*
X89223448Y-90181271D01*
X89252778Y-90217009D01*
X89336443Y-90373534D01*
X89387963Y-90543373D01*
X89405359Y-90720000D01*
X89387963Y-90896627D01*
X89336443Y-91066466D01*
X89252778Y-91222991D01*
X89223448Y-91258729D01*
X89140186Y-91360186D01*
X89038729Y-91443448D01*
X89002991Y-91472778D01*
X88846466Y-91556443D01*
X88676627Y-91607963D01*
X88610442Y-91614482D01*
X88544260Y-91621000D01*
X88455740Y-91621000D01*
X88389558Y-91614482D01*
X88323373Y-91607963D01*
X88153534Y-91556443D01*
X87997009Y-91472778D01*
X87961271Y-91443448D01*
X87859814Y-91360186D01*
X87776552Y-91258729D01*
X87747222Y-91222991D01*
X87663557Y-91066466D01*
X87612037Y-90896627D01*
X87594641Y-90720000D01*
X87612037Y-90543373D01*
X87663557Y-90373534D01*
X87747222Y-90217009D01*
X87776552Y-90181271D01*
X87859814Y-90079814D01*
X87961271Y-89996552D01*
X87997009Y-89967222D01*
X88153534Y-89883557D01*
X88323373Y-89832037D01*
X88389558Y-89825518D01*
X88455740Y-89819000D01*
X88544260Y-89819000D01*
X88610442Y-89825518D01*
X88610442Y-89825518D01*
G37*
G36*
X51570442Y-89825518D02*
G01*
X51636627Y-89832037D01*
X51806466Y-89883557D01*
X51962991Y-89967222D01*
X51998729Y-89996552D01*
X52100186Y-90079814D01*
X52183448Y-90181271D01*
X52212778Y-90217009D01*
X52296443Y-90373534D01*
X52347963Y-90543373D01*
X52365359Y-90720000D01*
X52347963Y-90896627D01*
X52296443Y-91066466D01*
X52212778Y-91222991D01*
X52183448Y-91258729D01*
X52100186Y-91360186D01*
X51998729Y-91443448D01*
X51962991Y-91472778D01*
X51806466Y-91556443D01*
X51636627Y-91607963D01*
X51570442Y-91614482D01*
X51504260Y-91621000D01*
X51415740Y-91621000D01*
X51349558Y-91614482D01*
X51283373Y-91607963D01*
X51113534Y-91556443D01*
X50957009Y-91472778D01*
X50921271Y-91443448D01*
X50819814Y-91360186D01*
X50736552Y-91258729D01*
X50707222Y-91222991D01*
X50623557Y-91066466D01*
X50572037Y-90896627D01*
X50554641Y-90720000D01*
X50572037Y-90543373D01*
X50623557Y-90373534D01*
X50707222Y-90217009D01*
X50736552Y-90181271D01*
X50819814Y-90079814D01*
X50921271Y-89996552D01*
X50957009Y-89967222D01*
X51113534Y-89883557D01*
X51283373Y-89832037D01*
X51349558Y-89825518D01*
X51415740Y-89819000D01*
X51504260Y-89819000D01*
X51570442Y-89825518D01*
X51570442Y-89825518D01*
G37*
G36*
X54110442Y-89825518D02*
G01*
X54176627Y-89832037D01*
X54346466Y-89883557D01*
X54502991Y-89967222D01*
X54538729Y-89996552D01*
X54640186Y-90079814D01*
X54723448Y-90181271D01*
X54752778Y-90217009D01*
X54836443Y-90373534D01*
X54887963Y-90543373D01*
X54905359Y-90720000D01*
X54887963Y-90896627D01*
X54836443Y-91066466D01*
X54752778Y-91222991D01*
X54723448Y-91258729D01*
X54640186Y-91360186D01*
X54538729Y-91443448D01*
X54502991Y-91472778D01*
X54346466Y-91556443D01*
X54176627Y-91607963D01*
X54110442Y-91614482D01*
X54044260Y-91621000D01*
X53955740Y-91621000D01*
X53889558Y-91614482D01*
X53823373Y-91607963D01*
X53653534Y-91556443D01*
X53497009Y-91472778D01*
X53461271Y-91443448D01*
X53359814Y-91360186D01*
X53276552Y-91258729D01*
X53247222Y-91222991D01*
X53163557Y-91066466D01*
X53112037Y-90896627D01*
X53094641Y-90720000D01*
X53112037Y-90543373D01*
X53163557Y-90373534D01*
X53247222Y-90217009D01*
X53276552Y-90181271D01*
X53359814Y-90079814D01*
X53461271Y-89996552D01*
X53497009Y-89967222D01*
X53653534Y-89883557D01*
X53823373Y-89832037D01*
X53889558Y-89825518D01*
X53955740Y-89819000D01*
X54044260Y-89819000D01*
X54110442Y-89825518D01*
X54110442Y-89825518D01*
G37*
G36*
X62683765Y-88998620D02*
G01*
X62873288Y-89077123D01*
X63043854Y-89191092D01*
X63188908Y-89336146D01*
X63188909Y-89336148D01*
X63302878Y-89506714D01*
X63381380Y-89696235D01*
X63418641Y-89883557D01*
X63421400Y-89897431D01*
X63421400Y-90102569D01*
X63381380Y-90303765D01*
X63302877Y-90493288D01*
X63188908Y-90663854D01*
X63043854Y-90808908D01*
X62873288Y-90922877D01*
X62873287Y-90922878D01*
X62873286Y-90922878D01*
X62683765Y-91001380D01*
X62482570Y-91041400D01*
X62277430Y-91041400D01*
X62076235Y-91001380D01*
X61886714Y-90922878D01*
X61886713Y-90922878D01*
X61886712Y-90922877D01*
X61716146Y-90808908D01*
X61571092Y-90663854D01*
X61457123Y-90493288D01*
X61378620Y-90303765D01*
X61338600Y-90102569D01*
X61338600Y-89897431D01*
X61341360Y-89883557D01*
X61378620Y-89696235D01*
X61457122Y-89506714D01*
X61571091Y-89336148D01*
X61571092Y-89336146D01*
X61716146Y-89191092D01*
X61886712Y-89077123D01*
X62076235Y-88998620D01*
X62277430Y-88958600D01*
X62482570Y-88958600D01*
X62683765Y-88998620D01*
X62683765Y-88998620D01*
G37*
G36*
X77923765Y-88998620D02*
G01*
X78113288Y-89077123D01*
X78283854Y-89191092D01*
X78428908Y-89336146D01*
X78428909Y-89336148D01*
X78542878Y-89506714D01*
X78621380Y-89696235D01*
X78658641Y-89883557D01*
X78661400Y-89897431D01*
X78661400Y-90102569D01*
X78621380Y-90303765D01*
X78542877Y-90493288D01*
X78428908Y-90663854D01*
X78283854Y-90808908D01*
X78113288Y-90922877D01*
X78113287Y-90922878D01*
X78113286Y-90922878D01*
X77923765Y-91001380D01*
X77722570Y-91041400D01*
X77517430Y-91041400D01*
X77316235Y-91001380D01*
X77126714Y-90922878D01*
X77126713Y-90922878D01*
X77126712Y-90922877D01*
X76956146Y-90808908D01*
X76811092Y-90663854D01*
X76697123Y-90493288D01*
X76618620Y-90303765D01*
X76578600Y-90102569D01*
X76578600Y-89897431D01*
X76581360Y-89883557D01*
X76618620Y-89696235D01*
X76697122Y-89506714D01*
X76811091Y-89336148D01*
X76811092Y-89336146D01*
X76956146Y-89191092D01*
X77126712Y-89077123D01*
X77316235Y-88998620D01*
X77517430Y-88958600D01*
X77722570Y-88958600D01*
X77923765Y-88998620D01*
X77923765Y-88998620D01*
G37*
G36*
X77923765Y-86458620D02*
G01*
X78113288Y-86537123D01*
X78283854Y-86651092D01*
X78428908Y-86796146D01*
X78542877Y-86966712D01*
X78621380Y-87156235D01*
X78661400Y-87357431D01*
X78661400Y-87562569D01*
X78621380Y-87763765D01*
X78542877Y-87953288D01*
X78428908Y-88123854D01*
X78283854Y-88268908D01*
X78113288Y-88382877D01*
X78113287Y-88382878D01*
X78113286Y-88382878D01*
X77923765Y-88461380D01*
X77722570Y-88501400D01*
X77517430Y-88501400D01*
X77316235Y-88461380D01*
X77126714Y-88382878D01*
X77126713Y-88382878D01*
X77126712Y-88382877D01*
X76956146Y-88268908D01*
X76811092Y-88123854D01*
X76697123Y-87953288D01*
X76618620Y-87763765D01*
X76578600Y-87562569D01*
X76578600Y-87357431D01*
X76618620Y-87156235D01*
X76697123Y-86966712D01*
X76811092Y-86796146D01*
X76956146Y-86651092D01*
X77126712Y-86537123D01*
X77316235Y-86458620D01*
X77517430Y-86418600D01*
X77722570Y-86418600D01*
X77923765Y-86458620D01*
X77923765Y-86458620D01*
G37*
G36*
X62683765Y-86458620D02*
G01*
X62873288Y-86537123D01*
X63043854Y-86651092D01*
X63188908Y-86796146D01*
X63302877Y-86966712D01*
X63381380Y-87156235D01*
X63421400Y-87357431D01*
X63421400Y-87562569D01*
X63381380Y-87763765D01*
X63302877Y-87953288D01*
X63188908Y-88123854D01*
X63043854Y-88268908D01*
X62873288Y-88382877D01*
X62873287Y-88382878D01*
X62873286Y-88382878D01*
X62683765Y-88461380D01*
X62482570Y-88501400D01*
X62277430Y-88501400D01*
X62076235Y-88461380D01*
X61886714Y-88382878D01*
X61886713Y-88382878D01*
X61886712Y-88382877D01*
X61716146Y-88268908D01*
X61571092Y-88123854D01*
X61457123Y-87953288D01*
X61378620Y-87763765D01*
X61338600Y-87562569D01*
X61338600Y-87357431D01*
X61378620Y-87156235D01*
X61457123Y-86966712D01*
X61571092Y-86796146D01*
X61716146Y-86651092D01*
X61886712Y-86537123D01*
X62076235Y-86458620D01*
X62277430Y-86418600D01*
X62482570Y-86418600D01*
X62683765Y-86458620D01*
X62683765Y-86458620D01*
G37*
G36*
X62683765Y-83918620D02*
G01*
X62873288Y-83997123D01*
X63043854Y-84111092D01*
X63188908Y-84256146D01*
X63302877Y-84426712D01*
X63381380Y-84616235D01*
X63421400Y-84817431D01*
X63421400Y-85022569D01*
X63381380Y-85223765D01*
X63302877Y-85413288D01*
X63188908Y-85583854D01*
X63043854Y-85728908D01*
X62873288Y-85842877D01*
X62873287Y-85842878D01*
X62873286Y-85842878D01*
X62683765Y-85921380D01*
X62482570Y-85961400D01*
X62277430Y-85961400D01*
X62076235Y-85921380D01*
X61886714Y-85842878D01*
X61886713Y-85842878D01*
X61886712Y-85842877D01*
X61716146Y-85728908D01*
X61571092Y-85583854D01*
X61457123Y-85413288D01*
X61378620Y-85223765D01*
X61338600Y-85022569D01*
X61338600Y-84817431D01*
X61378620Y-84616235D01*
X61457123Y-84426712D01*
X61571092Y-84256146D01*
X61716146Y-84111092D01*
X61886712Y-83997123D01*
X62076235Y-83918620D01*
X62277430Y-83878600D01*
X62482570Y-83878600D01*
X62683765Y-83918620D01*
X62683765Y-83918620D01*
G37*
G36*
X77923765Y-83918620D02*
G01*
X78113288Y-83997123D01*
X78283854Y-84111092D01*
X78428908Y-84256146D01*
X78542877Y-84426712D01*
X78621380Y-84616235D01*
X78661400Y-84817431D01*
X78661400Y-85022569D01*
X78621380Y-85223765D01*
X78542877Y-85413288D01*
X78428908Y-85583854D01*
X78283854Y-85728908D01*
X78113288Y-85842877D01*
X78113287Y-85842878D01*
X78113286Y-85842878D01*
X77923765Y-85921380D01*
X77722570Y-85961400D01*
X77517430Y-85961400D01*
X77316235Y-85921380D01*
X77126714Y-85842878D01*
X77126713Y-85842878D01*
X77126712Y-85842877D01*
X76956146Y-85728908D01*
X76811092Y-85583854D01*
X76697123Y-85413288D01*
X76618620Y-85223765D01*
X76578600Y-85022569D01*
X76578600Y-84817431D01*
X76618620Y-84616235D01*
X76697123Y-84426712D01*
X76811092Y-84256146D01*
X76956146Y-84111092D01*
X77126712Y-83997123D01*
X77316235Y-83918620D01*
X77517430Y-83878600D01*
X77722570Y-83878600D01*
X77923765Y-83918620D01*
X77923765Y-83918620D01*
G37*
G36*
X83901000Y-84901000D02*
G01*
X82099000Y-84901000D01*
X82099000Y-83099000D01*
X83901000Y-83099000D01*
X83901000Y-84901000D01*
X83901000Y-84901000D01*
G37*
G36*
X57901000Y-84901000D02*
G01*
X56099000Y-84901000D01*
X56099000Y-83099000D01*
X57901000Y-83099000D01*
X57901000Y-84901000D01*
X57901000Y-84901000D01*
G37*
G36*
X77923765Y-81378620D02*
G01*
X78113288Y-81457123D01*
X78283854Y-81571092D01*
X78428908Y-81716146D01*
X78542877Y-81886712D01*
X78621380Y-82076235D01*
X78661400Y-82277431D01*
X78661400Y-82482569D01*
X78621380Y-82683765D01*
X78542877Y-82873288D01*
X78428908Y-83043854D01*
X78283854Y-83188908D01*
X78113288Y-83302877D01*
X78113287Y-83302878D01*
X78113286Y-83302878D01*
X77923765Y-83381380D01*
X77722570Y-83421400D01*
X77517430Y-83421400D01*
X77316235Y-83381380D01*
X77126714Y-83302878D01*
X77126713Y-83302878D01*
X77126712Y-83302877D01*
X76956146Y-83188908D01*
X76811092Y-83043854D01*
X76697123Y-82873288D01*
X76618620Y-82683765D01*
X76578600Y-82482569D01*
X76578600Y-82277431D01*
X76618620Y-82076235D01*
X76697123Y-81886712D01*
X76811092Y-81716146D01*
X76956146Y-81571092D01*
X77126712Y-81457123D01*
X77316235Y-81378620D01*
X77517430Y-81338600D01*
X77722570Y-81338600D01*
X77923765Y-81378620D01*
X77923765Y-81378620D01*
G37*
G36*
X62683765Y-81378620D02*
G01*
X62873288Y-81457123D01*
X63043854Y-81571092D01*
X63188908Y-81716146D01*
X63302877Y-81886712D01*
X63381380Y-82076235D01*
X63421400Y-82277431D01*
X63421400Y-82482569D01*
X63381380Y-82683765D01*
X63302877Y-82873288D01*
X63188908Y-83043854D01*
X63043854Y-83188908D01*
X62873288Y-83302877D01*
X62873287Y-83302878D01*
X62873286Y-83302878D01*
X62683765Y-83381380D01*
X62482570Y-83421400D01*
X62277430Y-83421400D01*
X62076235Y-83381380D01*
X61886714Y-83302878D01*
X61886713Y-83302878D01*
X61886712Y-83302877D01*
X61716146Y-83188908D01*
X61571092Y-83043854D01*
X61457123Y-82873288D01*
X61378620Y-82683765D01*
X61338600Y-82482569D01*
X61338600Y-82277431D01*
X61378620Y-82076235D01*
X61457123Y-81886712D01*
X61571092Y-81716146D01*
X61716146Y-81571092D01*
X61886712Y-81457123D01*
X62076235Y-81378620D01*
X62277430Y-81338600D01*
X62482570Y-81338600D01*
X62683765Y-81378620D01*
X62683765Y-81378620D01*
G37*
G36*
X83110442Y-80565518D02*
G01*
X83176627Y-80572037D01*
X83346466Y-80623557D01*
X83502991Y-80707222D01*
X83538729Y-80736552D01*
X83640186Y-80819814D01*
X83723448Y-80921271D01*
X83752778Y-80957009D01*
X83836443Y-81113534D01*
X83887963Y-81283373D01*
X83905359Y-81460000D01*
X83887963Y-81636627D01*
X83836443Y-81806466D01*
X83752778Y-81962991D01*
X83723448Y-81998729D01*
X83640186Y-82100186D01*
X83538729Y-82183448D01*
X83502991Y-82212778D01*
X83346466Y-82296443D01*
X83176627Y-82347963D01*
X83110442Y-82354482D01*
X83044260Y-82361000D01*
X82955740Y-82361000D01*
X82889558Y-82354482D01*
X82823373Y-82347963D01*
X82653534Y-82296443D01*
X82497009Y-82212778D01*
X82461271Y-82183448D01*
X82359814Y-82100186D01*
X82276552Y-81998729D01*
X82247222Y-81962991D01*
X82163557Y-81806466D01*
X82112037Y-81636627D01*
X82094641Y-81460000D01*
X82112037Y-81283373D01*
X82163557Y-81113534D01*
X82247222Y-80957009D01*
X82276552Y-80921271D01*
X82359814Y-80819814D01*
X82461271Y-80736552D01*
X82497009Y-80707222D01*
X82653534Y-80623557D01*
X82823373Y-80572037D01*
X82889558Y-80565518D01*
X82955740Y-80559000D01*
X83044260Y-80559000D01*
X83110442Y-80565518D01*
X83110442Y-80565518D01*
G37*
G36*
X57110442Y-80565518D02*
G01*
X57176627Y-80572037D01*
X57346466Y-80623557D01*
X57502991Y-80707222D01*
X57538729Y-80736552D01*
X57640186Y-80819814D01*
X57723448Y-80921271D01*
X57752778Y-80957009D01*
X57836443Y-81113534D01*
X57887963Y-81283373D01*
X57905359Y-81460000D01*
X57887963Y-81636627D01*
X57836443Y-81806466D01*
X57752778Y-81962991D01*
X57723448Y-81998729D01*
X57640186Y-82100186D01*
X57538729Y-82183448D01*
X57502991Y-82212778D01*
X57346466Y-82296443D01*
X57176627Y-82347963D01*
X57110442Y-82354482D01*
X57044260Y-82361000D01*
X56955740Y-82361000D01*
X56889558Y-82354482D01*
X56823373Y-82347963D01*
X56653534Y-82296443D01*
X56497009Y-82212778D01*
X56461271Y-82183448D01*
X56359814Y-82100186D01*
X56276552Y-81998729D01*
X56247222Y-81962991D01*
X56163557Y-81806466D01*
X56112037Y-81636627D01*
X56094641Y-81460000D01*
X56112037Y-81283373D01*
X56163557Y-81113534D01*
X56247222Y-80957009D01*
X56276552Y-80921271D01*
X56359814Y-80819814D01*
X56461271Y-80736552D01*
X56497009Y-80707222D01*
X56653534Y-80623557D01*
X56823373Y-80572037D01*
X56889558Y-80565518D01*
X56955740Y-80559000D01*
X57044260Y-80559000D01*
X57110442Y-80565518D01*
X57110442Y-80565518D01*
G37*
G36*
X77923765Y-78838620D02*
G01*
X78113288Y-78917123D01*
X78283854Y-79031092D01*
X78428908Y-79176146D01*
X78542877Y-79346712D01*
X78621380Y-79536235D01*
X78661400Y-79737431D01*
X78661400Y-79942569D01*
X78621380Y-80143765D01*
X78542877Y-80333288D01*
X78428908Y-80503854D01*
X78283854Y-80648908D01*
X78113288Y-80762877D01*
X78113287Y-80762878D01*
X78113286Y-80762878D01*
X77923765Y-80841380D01*
X77722570Y-80881400D01*
X77517430Y-80881400D01*
X77316235Y-80841380D01*
X77126714Y-80762878D01*
X77126713Y-80762878D01*
X77126712Y-80762877D01*
X76956146Y-80648908D01*
X76811092Y-80503854D01*
X76697123Y-80333288D01*
X76618620Y-80143765D01*
X76578600Y-79942569D01*
X76578600Y-79737431D01*
X76618620Y-79536235D01*
X76697123Y-79346712D01*
X76811092Y-79176146D01*
X76956146Y-79031092D01*
X77126712Y-78917123D01*
X77316235Y-78838620D01*
X77517430Y-78798600D01*
X77722570Y-78798600D01*
X77923765Y-78838620D01*
X77923765Y-78838620D01*
G37*
G36*
X62683765Y-78838620D02*
G01*
X62873288Y-78917123D01*
X63043854Y-79031092D01*
X63188908Y-79176146D01*
X63302877Y-79346712D01*
X63381380Y-79536235D01*
X63421400Y-79737431D01*
X63421400Y-79942569D01*
X63381380Y-80143765D01*
X63302877Y-80333288D01*
X63188908Y-80503854D01*
X63043854Y-80648908D01*
X62873288Y-80762877D01*
X62873287Y-80762878D01*
X62873286Y-80762878D01*
X62683765Y-80841380D01*
X62482570Y-80881400D01*
X62277430Y-80881400D01*
X62076235Y-80841380D01*
X61886714Y-80762878D01*
X61886713Y-80762878D01*
X61886712Y-80762877D01*
X61716146Y-80648908D01*
X61571092Y-80503854D01*
X61457123Y-80333288D01*
X61378620Y-80143765D01*
X61338600Y-79942569D01*
X61338600Y-79737431D01*
X61378620Y-79536235D01*
X61457123Y-79346712D01*
X61571092Y-79176146D01*
X61716146Y-79031092D01*
X61886712Y-78917123D01*
X62076235Y-78838620D01*
X62277430Y-78798600D01*
X62482570Y-78798600D01*
X62683765Y-78838620D01*
X62683765Y-78838620D01*
G37*
G36*
X77923765Y-76298620D02*
G01*
X78113288Y-76377123D01*
X78283854Y-76491092D01*
X78428908Y-76636146D01*
X78542877Y-76806712D01*
X78621380Y-76996235D01*
X78661400Y-77197431D01*
X78661400Y-77402569D01*
X78621380Y-77603765D01*
X78542877Y-77793288D01*
X78428908Y-77963854D01*
X78283854Y-78108908D01*
X78113288Y-78222877D01*
X78113287Y-78222878D01*
X78113286Y-78222878D01*
X77923765Y-78301380D01*
X77722570Y-78341400D01*
X77517430Y-78341400D01*
X77316235Y-78301380D01*
X77126714Y-78222878D01*
X77126713Y-78222878D01*
X77126712Y-78222877D01*
X76956146Y-78108908D01*
X76811092Y-77963854D01*
X76697123Y-77793288D01*
X76618620Y-77603765D01*
X76578600Y-77402569D01*
X76578600Y-77197431D01*
X76618620Y-76996235D01*
X76697123Y-76806712D01*
X76811092Y-76636146D01*
X76956146Y-76491092D01*
X77126712Y-76377123D01*
X77316235Y-76298620D01*
X77517430Y-76258600D01*
X77722570Y-76258600D01*
X77923765Y-76298620D01*
X77923765Y-76298620D01*
G37*
G36*
X62683765Y-76298620D02*
G01*
X62873288Y-76377123D01*
X63043854Y-76491092D01*
X63188908Y-76636146D01*
X63302877Y-76806712D01*
X63381380Y-76996235D01*
X63421400Y-77197431D01*
X63421400Y-77402569D01*
X63381380Y-77603765D01*
X63302877Y-77793288D01*
X63188908Y-77963854D01*
X63043854Y-78108908D01*
X62873288Y-78222877D01*
X62873287Y-78222878D01*
X62873286Y-78222878D01*
X62683765Y-78301380D01*
X62482570Y-78341400D01*
X62277430Y-78341400D01*
X62076235Y-78301380D01*
X61886714Y-78222878D01*
X61886713Y-78222878D01*
X61886712Y-78222877D01*
X61716146Y-78108908D01*
X61571092Y-77963854D01*
X61457123Y-77793288D01*
X61378620Y-77603765D01*
X61338600Y-77402569D01*
X61338600Y-77197431D01*
X61378620Y-76996235D01*
X61457123Y-76806712D01*
X61571092Y-76636146D01*
X61716146Y-76491092D01*
X61886712Y-76377123D01*
X62076235Y-76298620D01*
X62277430Y-76258600D01*
X62482570Y-76258600D01*
X62683765Y-76298620D01*
X62683765Y-76298620D01*
G37*
G36*
X77923765Y-73758620D02*
G01*
X78113288Y-73837123D01*
X78283854Y-73951092D01*
X78428908Y-74096146D01*
X78542877Y-74266712D01*
X78621380Y-74456235D01*
X78661400Y-74657431D01*
X78661400Y-74862569D01*
X78621380Y-75063765D01*
X78542877Y-75253288D01*
X78428908Y-75423854D01*
X78283854Y-75568908D01*
X78113288Y-75682877D01*
X78113287Y-75682878D01*
X78113286Y-75682878D01*
X77923765Y-75761380D01*
X77722570Y-75801400D01*
X77517430Y-75801400D01*
X77316235Y-75761380D01*
X77126714Y-75682878D01*
X77126713Y-75682878D01*
X77126712Y-75682877D01*
X76956146Y-75568908D01*
X76811092Y-75423854D01*
X76697123Y-75253288D01*
X76618620Y-75063765D01*
X76578600Y-74862569D01*
X76578600Y-74657431D01*
X76618620Y-74456235D01*
X76697123Y-74266712D01*
X76811092Y-74096146D01*
X76956146Y-73951092D01*
X77126712Y-73837123D01*
X77316235Y-73758620D01*
X77517430Y-73718600D01*
X77722570Y-73718600D01*
X77923765Y-73758620D01*
X77923765Y-73758620D01*
G37*
G36*
X62683765Y-73758620D02*
G01*
X62873288Y-73837123D01*
X63043854Y-73951092D01*
X63188908Y-74096146D01*
X63302877Y-74266712D01*
X63381380Y-74456235D01*
X63421400Y-74657431D01*
X63421400Y-74862569D01*
X63381380Y-75063765D01*
X63302877Y-75253288D01*
X63188908Y-75423854D01*
X63043854Y-75568908D01*
X62873288Y-75682877D01*
X62873287Y-75682878D01*
X62873286Y-75682878D01*
X62683765Y-75761380D01*
X62482570Y-75801400D01*
X62277430Y-75801400D01*
X62076235Y-75761380D01*
X61886714Y-75682878D01*
X61886713Y-75682878D01*
X61886712Y-75682877D01*
X61716146Y-75568908D01*
X61571092Y-75423854D01*
X61457123Y-75253288D01*
X61378620Y-75063765D01*
X61338600Y-74862569D01*
X61338600Y-74657431D01*
X61378620Y-74456235D01*
X61457123Y-74266712D01*
X61571092Y-74096146D01*
X61716146Y-73951092D01*
X61886712Y-73837123D01*
X62076235Y-73758620D01*
X62277430Y-73718600D01*
X62482570Y-73718600D01*
X62683765Y-73758620D01*
X62683765Y-73758620D01*
G37*
M02*
