G04 #@! TF.GenerationSoftware,KiCad,Pcbnew,(5.1.4)-1*
G04 #@! TF.CreationDate,2021-04-23T00:03:44+10:00*
G04 #@! TF.ProjectId,wheel-hub-io-v1,77686565-6c2d-4687-9562-2d696f2d7631,rev?*
G04 #@! TF.SameCoordinates,Original*
G04 #@! TF.FileFunction,Legend,Top*
G04 #@! TF.FilePolarity,Positive*
%FSLAX46Y46*%
G04 Gerber Fmt 4.6, Leading zero omitted, Abs format (unit mm)*
G04 Created by KiCad (PCBNEW (5.1.4)-1) date 2021-04-23 00:03:44*
%MOMM*%
%LPD*%
G04 APERTURE LIST*
%ADD10C,0.150000*%
%ADD11C,0.120000*%
G04 APERTURE END LIST*
D10*
X62119047Y-124285714D02*
X62119047Y-125095238D01*
X62071428Y-125190476D01*
X62023809Y-125238095D01*
X61928571Y-125285714D01*
X61785714Y-125285714D01*
X61690476Y-125238095D01*
X62119047Y-124904761D02*
X62023809Y-124952380D01*
X61833333Y-124952380D01*
X61738095Y-124904761D01*
X61690476Y-124857142D01*
X61642857Y-124761904D01*
X61642857Y-124476190D01*
X61690476Y-124380952D01*
X61738095Y-124333333D01*
X61833333Y-124285714D01*
X62023809Y-124285714D01*
X62119047Y-124333333D01*
X62595238Y-124952380D02*
X62595238Y-124285714D01*
X62595238Y-123952380D02*
X62547619Y-124000000D01*
X62595238Y-124047619D01*
X62642857Y-124000000D01*
X62595238Y-123952380D01*
X62595238Y-124047619D01*
X62928571Y-124285714D02*
X63309523Y-124285714D01*
X63071428Y-123952380D02*
X63071428Y-124809523D01*
X63119047Y-124904761D01*
X63214285Y-124952380D01*
X63309523Y-124952380D01*
X63642857Y-124952380D02*
X63642857Y-123952380D01*
X64071428Y-124952380D02*
X64071428Y-124428571D01*
X64023809Y-124333333D01*
X63928571Y-124285714D01*
X63785714Y-124285714D01*
X63690476Y-124333333D01*
X63642857Y-124380952D01*
X64976190Y-124285714D02*
X64976190Y-124952380D01*
X64547619Y-124285714D02*
X64547619Y-124809523D01*
X64595238Y-124904761D01*
X64690476Y-124952380D01*
X64833333Y-124952380D01*
X64928571Y-124904761D01*
X64976190Y-124857142D01*
X65452380Y-124952380D02*
X65452380Y-123952380D01*
X65452380Y-124333333D02*
X65547619Y-124285714D01*
X65738095Y-124285714D01*
X65833333Y-124333333D01*
X65880952Y-124380952D01*
X65928571Y-124476190D01*
X65928571Y-124761904D01*
X65880952Y-124857142D01*
X65833333Y-124904761D01*
X65738095Y-124952380D01*
X65547619Y-124952380D01*
X65452380Y-124904761D01*
X66357142Y-124857142D02*
X66404761Y-124904761D01*
X66357142Y-124952380D01*
X66309523Y-124904761D01*
X66357142Y-124857142D01*
X66357142Y-124952380D01*
X67261904Y-124904761D02*
X67166666Y-124952380D01*
X66976190Y-124952380D01*
X66880952Y-124904761D01*
X66833333Y-124857142D01*
X66785714Y-124761904D01*
X66785714Y-124476190D01*
X66833333Y-124380952D01*
X66880952Y-124333333D01*
X66976190Y-124285714D01*
X67166666Y-124285714D01*
X67261904Y-124333333D01*
X67833333Y-124952380D02*
X67738095Y-124904761D01*
X67690476Y-124857142D01*
X67642857Y-124761904D01*
X67642857Y-124476190D01*
X67690476Y-124380952D01*
X67738095Y-124333333D01*
X67833333Y-124285714D01*
X67976190Y-124285714D01*
X68071428Y-124333333D01*
X68119047Y-124380952D01*
X68166666Y-124476190D01*
X68166666Y-124761904D01*
X68119047Y-124857142D01*
X68071428Y-124904761D01*
X67976190Y-124952380D01*
X67833333Y-124952380D01*
X68595238Y-124952380D02*
X68595238Y-124285714D01*
X68595238Y-124380952D02*
X68642857Y-124333333D01*
X68738095Y-124285714D01*
X68880952Y-124285714D01*
X68976190Y-124333333D01*
X69023809Y-124428571D01*
X69023809Y-124952380D01*
X69023809Y-124428571D02*
X69071428Y-124333333D01*
X69166666Y-124285714D01*
X69309523Y-124285714D01*
X69404761Y-124333333D01*
X69452380Y-124428571D01*
X69452380Y-124952380D01*
X70642857Y-123904761D02*
X69785714Y-125190476D01*
X70928571Y-124904761D02*
X71071428Y-124952380D01*
X71309523Y-124952380D01*
X71404761Y-124904761D01*
X71452380Y-124857142D01*
X71500000Y-124761904D01*
X71500000Y-124666666D01*
X71452380Y-124571428D01*
X71404761Y-124523809D01*
X71309523Y-124476190D01*
X71119047Y-124428571D01*
X71023809Y-124380952D01*
X70976190Y-124333333D01*
X70928571Y-124238095D01*
X70928571Y-124142857D01*
X70976190Y-124047619D01*
X71023809Y-124000000D01*
X71119047Y-123952380D01*
X71357142Y-123952380D01*
X71500000Y-124000000D01*
X71785714Y-124285714D02*
X72166666Y-124285714D01*
X71928571Y-123952380D02*
X71928571Y-124809523D01*
X71976190Y-124904761D01*
X72071428Y-124952380D01*
X72166666Y-124952380D01*
X72642857Y-124952380D02*
X72547619Y-124904761D01*
X72500000Y-124857142D01*
X72452380Y-124761904D01*
X72452380Y-124476190D01*
X72500000Y-124380952D01*
X72547619Y-124333333D01*
X72642857Y-124285714D01*
X72785714Y-124285714D01*
X72880952Y-124333333D01*
X72928571Y-124380952D01*
X72976190Y-124476190D01*
X72976190Y-124761904D01*
X72928571Y-124857142D01*
X72880952Y-124904761D01*
X72785714Y-124952380D01*
X72642857Y-124952380D01*
X73404761Y-124952380D02*
X73404761Y-124285714D01*
X73404761Y-124476190D02*
X73452380Y-124380952D01*
X73500000Y-124333333D01*
X73595238Y-124285714D01*
X73690476Y-124285714D01*
X74023809Y-124952380D02*
X74023809Y-124285714D01*
X74023809Y-124380952D02*
X74071428Y-124333333D01*
X74166666Y-124285714D01*
X74309523Y-124285714D01*
X74404761Y-124333333D01*
X74452380Y-124428571D01*
X74452380Y-124952380D01*
X74452380Y-124428571D02*
X74500000Y-124333333D01*
X74595238Y-124285714D01*
X74738095Y-124285714D01*
X74833333Y-124333333D01*
X74880952Y-124428571D01*
X74880952Y-124952380D01*
X75357142Y-124285714D02*
X75357142Y-125285714D01*
X75357142Y-124333333D02*
X75452380Y-124285714D01*
X75642857Y-124285714D01*
X75738095Y-124333333D01*
X75785714Y-124380952D01*
X75833333Y-124476190D01*
X75833333Y-124761904D01*
X75785714Y-124857142D01*
X75738095Y-124904761D01*
X75642857Y-124952380D01*
X75452380Y-124952380D01*
X75357142Y-124904761D01*
X76642857Y-124904761D02*
X76547619Y-124952380D01*
X76357142Y-124952380D01*
X76261904Y-124904761D01*
X76214285Y-124809523D01*
X76214285Y-124428571D01*
X76261904Y-124333333D01*
X76357142Y-124285714D01*
X76547619Y-124285714D01*
X76642857Y-124333333D01*
X76690476Y-124428571D01*
X76690476Y-124523809D01*
X76214285Y-124619047D01*
X77547619Y-124285714D02*
X77547619Y-125095238D01*
X77500000Y-125190476D01*
X77452380Y-125238095D01*
X77357142Y-125285714D01*
X77214285Y-125285714D01*
X77119047Y-125238095D01*
X77547619Y-124904761D02*
X77452380Y-124952380D01*
X77261904Y-124952380D01*
X77166666Y-124904761D01*
X77119047Y-124857142D01*
X77071428Y-124761904D01*
X77071428Y-124476190D01*
X77119047Y-124380952D01*
X77166666Y-124333333D01*
X77261904Y-124285714D01*
X77452380Y-124285714D01*
X77547619Y-124333333D01*
X77928571Y-124285714D02*
X78166666Y-124952380D01*
X78404761Y-124285714D02*
X78166666Y-124952380D01*
X78071428Y-125190476D01*
X78023809Y-125238095D01*
X77928571Y-125285714D01*
X82485714Y-114761904D02*
X82219047Y-114380952D01*
X82028571Y-114761904D02*
X82028571Y-113961904D01*
X82333333Y-113961904D01*
X82409523Y-114000000D01*
X82447619Y-114038095D01*
X82485714Y-114114285D01*
X82485714Y-114228571D01*
X82447619Y-114304761D01*
X82409523Y-114342857D01*
X82333333Y-114380952D01*
X82028571Y-114380952D01*
X82752380Y-113961904D02*
X83285714Y-114761904D01*
X83285714Y-113961904D02*
X82752380Y-114761904D01*
X84009523Y-114761904D02*
X83552380Y-114761904D01*
X83780952Y-114761904D02*
X83780952Y-113961904D01*
X83704761Y-114076190D01*
X83628571Y-114152380D01*
X83552380Y-114190476D01*
X82009523Y-116661904D02*
X82466666Y-116661904D01*
X82238095Y-117461904D02*
X82238095Y-116661904D01*
X82657142Y-116661904D02*
X83190476Y-117461904D01*
X83190476Y-116661904D02*
X82657142Y-117461904D01*
X83647619Y-116661904D02*
X83723809Y-116661904D01*
X83800000Y-116700000D01*
X83838095Y-116738095D01*
X83876190Y-116814285D01*
X83914285Y-116966666D01*
X83914285Y-117157142D01*
X83876190Y-117309523D01*
X83838095Y-117385714D01*
X83800000Y-117423809D01*
X83723809Y-117461904D01*
X83647619Y-117461904D01*
X83571428Y-117423809D01*
X83533333Y-117385714D01*
X83495238Y-117309523D01*
X83457142Y-117157142D01*
X83457142Y-116966666D01*
X83495238Y-116814285D01*
X83533333Y-116738095D01*
X83571428Y-116700000D01*
X83647619Y-116661904D01*
X56347619Y-90161904D02*
X55890476Y-90161904D01*
X56119047Y-90161904D02*
X56119047Y-89361904D01*
X56042857Y-89476190D01*
X55966666Y-89552380D01*
X55890476Y-89590476D01*
X56842857Y-89361904D02*
X56919047Y-89361904D01*
X56995238Y-89400000D01*
X57033333Y-89438095D01*
X57071428Y-89514285D01*
X57109523Y-89666666D01*
X57109523Y-89857142D01*
X57071428Y-90009523D01*
X57033333Y-90085714D01*
X56995238Y-90123809D01*
X56919047Y-90161904D01*
X56842857Y-90161904D01*
X56766666Y-90123809D01*
X56728571Y-90085714D01*
X56690476Y-90009523D01*
X56652380Y-89857142D01*
X56652380Y-89666666D01*
X56690476Y-89514285D01*
X56728571Y-89438095D01*
X56766666Y-89400000D01*
X56842857Y-89361904D01*
X56347619Y-92861904D02*
X55890476Y-92861904D01*
X56119047Y-92861904D02*
X56119047Y-92061904D01*
X56042857Y-92176190D01*
X55966666Y-92252380D01*
X55890476Y-92290476D01*
X57109523Y-92861904D02*
X56652380Y-92861904D01*
X56880952Y-92861904D02*
X56880952Y-92061904D01*
X56804761Y-92176190D01*
X56728571Y-92252380D01*
X56652380Y-92290476D01*
X56347619Y-95561904D02*
X55890476Y-95561904D01*
X56119047Y-95561904D02*
X56119047Y-94761904D01*
X56042857Y-94876190D01*
X55966666Y-94952380D01*
X55890476Y-94990476D01*
X56652380Y-94838095D02*
X56690476Y-94800000D01*
X56766666Y-94761904D01*
X56957142Y-94761904D01*
X57033333Y-94800000D01*
X57071428Y-94838095D01*
X57109523Y-94914285D01*
X57109523Y-94990476D01*
X57071428Y-95104761D01*
X56614285Y-95561904D01*
X57109523Y-95561904D01*
X56347619Y-98261904D02*
X55890476Y-98261904D01*
X56119047Y-98261904D02*
X56119047Y-97461904D01*
X56042857Y-97576190D01*
X55966666Y-97652380D01*
X55890476Y-97690476D01*
X56614285Y-97461904D02*
X57109523Y-97461904D01*
X56842857Y-97766666D01*
X56957142Y-97766666D01*
X57033333Y-97804761D01*
X57071428Y-97842857D01*
X57109523Y-97919047D01*
X57109523Y-98109523D01*
X57071428Y-98185714D01*
X57033333Y-98223809D01*
X56957142Y-98261904D01*
X56728571Y-98261904D01*
X56652380Y-98223809D01*
X56614285Y-98185714D01*
X55928571Y-100733333D02*
X56309523Y-100733333D01*
X55852380Y-100961904D02*
X56119047Y-100161904D01*
X56385714Y-100961904D01*
X56804761Y-100161904D02*
X56880952Y-100161904D01*
X56957142Y-100200000D01*
X56995238Y-100238095D01*
X57033333Y-100314285D01*
X57071428Y-100466666D01*
X57071428Y-100657142D01*
X57033333Y-100809523D01*
X56995238Y-100885714D01*
X56957142Y-100923809D01*
X56880952Y-100961904D01*
X56804761Y-100961904D01*
X56728571Y-100923809D01*
X56690476Y-100885714D01*
X56652380Y-100809523D01*
X56614285Y-100657142D01*
X56614285Y-100466666D01*
X56652380Y-100314285D01*
X56690476Y-100238095D01*
X56728571Y-100200000D01*
X56804761Y-100161904D01*
X55928571Y-103433333D02*
X56309523Y-103433333D01*
X55852380Y-103661904D02*
X56119047Y-102861904D01*
X56385714Y-103661904D01*
X57071428Y-103661904D02*
X56614285Y-103661904D01*
X56842857Y-103661904D02*
X56842857Y-102861904D01*
X56766666Y-102976190D01*
X56690476Y-103052380D01*
X56614285Y-103090476D01*
X55928571Y-106133333D02*
X56309523Y-106133333D01*
X55852380Y-106361904D02*
X56119047Y-105561904D01*
X56385714Y-106361904D01*
X56614285Y-105638095D02*
X56652380Y-105600000D01*
X56728571Y-105561904D01*
X56919047Y-105561904D01*
X56995238Y-105600000D01*
X57033333Y-105638095D01*
X57071428Y-105714285D01*
X57071428Y-105790476D01*
X57033333Y-105904761D01*
X56576190Y-106361904D01*
X57071428Y-106361904D01*
X55928571Y-108833333D02*
X56309523Y-108833333D01*
X55852380Y-109061904D02*
X56119047Y-108261904D01*
X56385714Y-109061904D01*
X56576190Y-108261904D02*
X57071428Y-108261904D01*
X56804761Y-108566666D01*
X56919047Y-108566666D01*
X56995238Y-108604761D01*
X57033333Y-108642857D01*
X57071428Y-108719047D01*
X57071428Y-108909523D01*
X57033333Y-108985714D01*
X56995238Y-109023809D01*
X56919047Y-109061904D01*
X56690476Y-109061904D01*
X56614285Y-109023809D01*
X56576190Y-108985714D01*
X83597619Y-90411904D02*
X83750000Y-90411904D01*
X83826190Y-90373809D01*
X83864285Y-90335714D01*
X83940476Y-90221428D01*
X83978571Y-90069047D01*
X83978571Y-89764285D01*
X83940476Y-89688095D01*
X83902380Y-89650000D01*
X83826190Y-89611904D01*
X83673809Y-89611904D01*
X83597619Y-89650000D01*
X83559523Y-89688095D01*
X83521428Y-89764285D01*
X83521428Y-89954761D01*
X83559523Y-90030952D01*
X83597619Y-90069047D01*
X83673809Y-90107142D01*
X83826190Y-90107142D01*
X83902380Y-90069047D01*
X83940476Y-90030952D01*
X83978571Y-89954761D01*
X83673809Y-92654761D02*
X83597619Y-92616666D01*
X83559523Y-92578571D01*
X83521428Y-92502380D01*
X83521428Y-92464285D01*
X83559523Y-92388095D01*
X83597619Y-92350000D01*
X83673809Y-92311904D01*
X83826190Y-92311904D01*
X83902380Y-92350000D01*
X83940476Y-92388095D01*
X83978571Y-92464285D01*
X83978571Y-92502380D01*
X83940476Y-92578571D01*
X83902380Y-92616666D01*
X83826190Y-92654761D01*
X83673809Y-92654761D01*
X83597619Y-92692857D01*
X83559523Y-92730952D01*
X83521428Y-92807142D01*
X83521428Y-92959523D01*
X83559523Y-93035714D01*
X83597619Y-93073809D01*
X83673809Y-93111904D01*
X83826190Y-93111904D01*
X83902380Y-93073809D01*
X83940476Y-93035714D01*
X83978571Y-92959523D01*
X83978571Y-92807142D01*
X83940476Y-92730952D01*
X83902380Y-92692857D01*
X83826190Y-92654761D01*
X83483333Y-95011904D02*
X84016666Y-95011904D01*
X83673809Y-95811904D01*
X83902380Y-97711904D02*
X83750000Y-97711904D01*
X83673809Y-97750000D01*
X83635714Y-97788095D01*
X83559523Y-97902380D01*
X83521428Y-98054761D01*
X83521428Y-98359523D01*
X83559523Y-98435714D01*
X83597619Y-98473809D01*
X83673809Y-98511904D01*
X83826190Y-98511904D01*
X83902380Y-98473809D01*
X83940476Y-98435714D01*
X83978571Y-98359523D01*
X83978571Y-98169047D01*
X83940476Y-98092857D01*
X83902380Y-98054761D01*
X83826190Y-98016666D01*
X83673809Y-98016666D01*
X83597619Y-98054761D01*
X83559523Y-98092857D01*
X83521428Y-98169047D01*
X83940476Y-100411904D02*
X83559523Y-100411904D01*
X83521428Y-100792857D01*
X83559523Y-100754761D01*
X83635714Y-100716666D01*
X83826190Y-100716666D01*
X83902380Y-100754761D01*
X83940476Y-100792857D01*
X83978571Y-100869047D01*
X83978571Y-101059523D01*
X83940476Y-101135714D01*
X83902380Y-101173809D01*
X83826190Y-101211904D01*
X83635714Y-101211904D01*
X83559523Y-101173809D01*
X83521428Y-101135714D01*
X83902380Y-103378571D02*
X83902380Y-103911904D01*
X83711904Y-103073809D02*
X83521428Y-103645238D01*
X84016666Y-103645238D01*
X83483333Y-105811904D02*
X83978571Y-105811904D01*
X83711904Y-106116666D01*
X83826190Y-106116666D01*
X83902380Y-106154761D01*
X83940476Y-106192857D01*
X83978571Y-106269047D01*
X83978571Y-106459523D01*
X83940476Y-106535714D01*
X83902380Y-106573809D01*
X83826190Y-106611904D01*
X83597619Y-106611904D01*
X83521428Y-106573809D01*
X83483333Y-106535714D01*
X83521428Y-108588095D02*
X83559523Y-108550000D01*
X83635714Y-108511904D01*
X83826190Y-108511904D01*
X83902380Y-108550000D01*
X83940476Y-108588095D01*
X83978571Y-108664285D01*
X83978571Y-108740476D01*
X83940476Y-108854761D01*
X83483333Y-109311904D01*
X83978571Y-109311904D01*
D11*
X76250000Y-104000000D02*
X76250000Y-101500000D01*
X78750000Y-104000000D02*
X76250000Y-104000000D01*
X78750000Y-101500000D02*
X78750000Y-104000000D01*
X76250000Y-101500000D02*
X78750000Y-101500000D01*
D10*
X54138095Y-82561904D02*
X54519047Y-82295238D01*
X54138095Y-82104761D02*
X54938095Y-82104761D01*
X54938095Y-82409523D01*
X54900000Y-82485714D01*
X54861904Y-82523809D01*
X54785714Y-82561904D01*
X54671428Y-82561904D01*
X54595238Y-82523809D01*
X54557142Y-82485714D01*
X54519047Y-82409523D01*
X54519047Y-82104761D01*
X54176190Y-82866666D02*
X54138095Y-82980952D01*
X54138095Y-83171428D01*
X54176190Y-83247619D01*
X54214285Y-83285714D01*
X54290476Y-83323809D01*
X54366666Y-83323809D01*
X54442857Y-83285714D01*
X54480952Y-83247619D01*
X54519047Y-83171428D01*
X54557142Y-83019047D01*
X54595238Y-82942857D01*
X54633333Y-82904761D01*
X54709523Y-82866666D01*
X54785714Y-82866666D01*
X54861904Y-82904761D01*
X54900000Y-82942857D01*
X54938095Y-83019047D01*
X54938095Y-83209523D01*
X54900000Y-83323809D01*
X54938095Y-83552380D02*
X54938095Y-84009523D01*
X54138095Y-83780952D02*
X54938095Y-83780952D01*
D11*
X89870000Y-118330000D02*
X89870000Y-113130000D01*
X87270000Y-118330000D02*
X89870000Y-118330000D01*
X84670000Y-113130000D02*
X89870000Y-113130000D01*
X87270000Y-118330000D02*
X87270000Y-115730000D01*
X87270000Y-115730000D02*
X84670000Y-115730000D01*
X84670000Y-115730000D02*
X84670000Y-113130000D01*
X86000000Y-118330000D02*
X84670000Y-118330000D01*
X84670000Y-118330000D02*
X84670000Y-117000000D01*
X55330000Y-89390000D02*
X50130000Y-89390000D01*
X55330000Y-107230000D02*
X55330000Y-89390000D01*
X50130000Y-109830000D02*
X50130000Y-89390000D01*
X55330000Y-107230000D02*
X52730000Y-107230000D01*
X52730000Y-107230000D02*
X52730000Y-109830000D01*
X52730000Y-109830000D02*
X50130000Y-109830000D01*
X55330000Y-108500000D02*
X55330000Y-109830000D01*
X55330000Y-109830000D02*
X54000000Y-109830000D01*
X89830000Y-89390000D02*
X84630000Y-89390000D01*
X89830000Y-107230000D02*
X89830000Y-89390000D01*
X84630000Y-109830000D02*
X84630000Y-89390000D01*
X89830000Y-107230000D02*
X87230000Y-107230000D01*
X87230000Y-107230000D02*
X87230000Y-109830000D01*
X87230000Y-109830000D02*
X84630000Y-109830000D01*
X89830000Y-108500000D02*
X89830000Y-109830000D01*
X89830000Y-109830000D02*
X88500000Y-109830000D01*
X84330000Y-80130000D02*
X81670000Y-80130000D01*
X84330000Y-82730000D02*
X84330000Y-80130000D01*
X81670000Y-82730000D02*
X81670000Y-80130000D01*
X84330000Y-82730000D02*
X81670000Y-82730000D01*
X84330000Y-84000000D02*
X84330000Y-85330000D01*
X84330000Y-85330000D02*
X83000000Y-85330000D01*
X58330000Y-80130000D02*
X55670000Y-80130000D01*
X58330000Y-82730000D02*
X58330000Y-80130000D01*
X55670000Y-82730000D02*
X55670000Y-80130000D01*
X58330000Y-82730000D02*
X55670000Y-82730000D01*
X58330000Y-84000000D02*
X58330000Y-85330000D01*
X58330000Y-85330000D02*
X57000000Y-85330000D01*
M02*
