M48
; DRILL file {KiCad (5.1.4)-1} date 23-Apr-21 12:03:50 AM
; FORMAT={-:-/ absolute / inch / decimal}
; #@! TF.CreationDate,2021-04-23T00:03:50+10:00
; #@! TF.GenerationSoftware,Kicad,Pcbnew,(5.1.4)-1
; #@! TF.FileFunction,Plated,1,2,PTH
FMAT,2
INCH
T1C0.0394
T2C0.0400
%
G90
G05
T1
X3.3858Y-4.5063
X3.3858Y-4.6063
X3.4858Y-4.5063
X3.4858Y-4.6063
X2.026Y-3.5717
X2.026Y-3.6717
X2.026Y-3.7717
X2.026Y-3.8717
X2.026Y-3.9717
X2.026Y-4.0717
X2.026Y-4.1717
X2.026Y-4.2717
X2.126Y-3.5717
X2.126Y-3.6717
X2.126Y-3.7717
X2.126Y-3.8717
X2.126Y-3.9717
X2.126Y-4.0717
X2.126Y-4.1717
X2.126Y-4.2717
X3.3843Y-3.5717
X3.3843Y-3.6717
X3.3843Y-3.7717
X3.3843Y-3.8717
X3.3843Y-3.9717
X3.3843Y-4.0717
X3.3843Y-4.1717
X3.3843Y-4.2717
X3.4843Y-3.5717
X3.4843Y-3.6717
X3.4843Y-3.7717
X3.4843Y-3.8717
X3.4843Y-3.9717
X3.4843Y-4.0717
X3.4843Y-4.1717
X3.4843Y-4.2717
X2.2441Y-3.2071
X2.2441Y-3.3071
X3.2677Y-3.2071
X3.2677Y-3.3071
T2
X2.4559Y-2.9433
X2.4559Y-3.0433
X2.4559Y-3.1433
X2.4559Y-3.2433
X2.4559Y-3.3433
X2.4559Y-3.4433
X2.4559Y-3.5433
X2.4559Y-3.6433
X2.4559Y-3.7433
X2.4559Y-3.8433
X2.4559Y-3.9433
X2.4559Y-4.0433
X3.0559Y-2.9433
X3.0559Y-3.0433
X3.0559Y-3.1433
X3.0559Y-3.2433
X3.0559Y-3.3433
X3.0559Y-3.4433
X3.0559Y-3.5433
X3.0559Y-3.6433
X3.0559Y-3.7433
X3.0559Y-3.8433
X3.0559Y-3.9433
X3.0559Y-4.0433
T0
M30
